<?xml version="1.0" encoding="UTF-8" standalone="no"?>
<!-- Generator: Adobe Illustrator 16.0.4, SVG Export Plug-In . SVG Version: 6.00 Build 0)  -->

<svg
   xmlns:dc="http://purl.org/dc/elements/1.1/"
   xmlns:cc="http://creativecommons.org/ns#"
   xmlns:rdf="http://www.w3.org/1999/02/22-rdf-syntax-ns#"
   xmlns:svg="http://www.w3.org/2000/svg"
   xmlns="http://www.w3.org/2000/svg"
   xmlns:xlink="http://www.w3.org/1999/xlink"
   xmlns:sodipodi="http://sodipodi.sourceforge.net/DTD/sodipodi-0.dtd"
   xmlns:inkscape="http://www.inkscape.org/namespaces/inkscape"
   version="1.1"
   id="Layer_1"
   x="0px"
   y="0px"
   width="695.63684"
   height="199.32138"
   viewBox="0 0 695.63683 199.32138"
   enable-background="new 0 0 841.89 595.276"
   xml:space="preserve"
   sodipodi:docname="edlogo_new_blue.svg"
   inkscape:version="0.92.4 (5da689c313, 2019-01-14)"><metadata
   id="metadata31"><rdf:RDF><cc:Work
       rdf:about=""><dc:format>image/svg+xml</dc:format><dc:type
         rdf:resource="http://purl.org/dc/dcmitype/StillImage" /></cc:Work></rdf:RDF></metadata><defs
   id="defs29" /><sodipodi:namedview
   pagecolor="#ffffff"
   bordercolor="#666666"
   borderopacity="1"
   objecttolerance="10"
   gridtolerance="10"
   guidetolerance="10"
   inkscape:pageopacity="0"
   inkscape:pageshadow="2"
   inkscape:window-width="3840"
   inkscape:window-height="2093"
   id="namedview27"
   showgrid="false"
   inkscape:zoom="1.1213434"
   inkscape:cx="347.81844"
   inkscape:cy="99.661209"
   inkscape:window-x="-18"
   inkscape:window-y="-18"
   inkscape:window-maximized="1"
   inkscape:current-layer="Layer_1" />
<rect
   y="0"
   width="695.63684"
   height="199.32138"
   id="rect2"
   x="0"
   style="fill:#1a2141;stroke-width:0.52599514" />
<g
   id="g24"
   transform="translate(-73.126572,-197.97783)">
	<defs
   id="defs5">
		<rect
   id="SVGID_1_"
   width="841.89001"
   height="595.276"
   x="0"
   y="0" />
	</defs>
	<clipPath
   id="SVGID_2_">
		<use
   xlink:href="#SVGID_1_"
   overflow="visible"
   id="use7"
   style="overflow:visible"
   x="0"
   y="0"
   width="100%"
   height="100%" />
	</clipPath>
	<path
   clip-path="url(#SVGID_2_)"
   d="m 654.391,350.295 c 0.383,-1.05 0.931,-1.972 1.646,-2.767 0.715,-0.794 1.598,-1.431 2.646,-1.908 1.051,-0.477 2.242,-0.715 3.578,-0.715 1.24,0 2.385,0.238 3.435,0.715 1.05,0.478 1.956,1.114 2.719,1.908 0.763,0.795 1.36,1.717 1.789,2.767 0.429,1.05 0.644,2.163 0.644,3.34 0,1.304 -0.215,2.487 -0.644,3.553 -0.429,1.066 -1.026,1.979 -1.789,2.743 -0.763,0.763 -1.669,1.352 -2.719,1.765 -1.05,0.414 -2.194,0.62 -3.435,0.62 -1.336,0 -2.527,-0.23 -3.578,-0.691 -1.049,-0.461 -1.932,-1.089 -2.646,-1.885 -0.716,-0.794 -1.264,-1.717 -1.646,-2.766 -0.381,-1.05 -0.571,-2.162 -0.571,-3.339 0,-1.177 0.19,-2.29 0.571,-3.34 m -3.53,21.752 c 1.336,1.398 2.94,2.495 4.817,3.29 1.876,0.796 3.848,1.193 5.915,1.193 2.48,0 4.499,-0.382 6.059,-1.145 1.558,-0.764 2.79,-1.718 3.696,-2.862 0.906,-1.146 1.526,-2.401 1.86,-3.768 0.334,-1.368 0.501,-2.656 0.501,-3.864 v -22.133 h -3.244 v 3.863 h -0.095 c -0.891,-1.431 -2.116,-2.527 -3.673,-3.291 -1.56,-0.764 -3.148,-1.145 -4.771,-1.145 -1.749,0 -3.332,0.302 -4.746,0.906 -1.416,0.604 -2.624,1.431 -3.625,2.48 -1.002,1.049 -1.781,2.273 -2.338,3.672 -0.557,1.4 -0.835,2.895 -0.835,4.484 0,1.622 0.278,3.133 0.835,4.532 0.557,1.398 1.336,2.599 2.338,3.601 1.001,1.002 2.209,1.789 3.625,2.361 1.414,0.573 2.997,0.858 4.746,0.858 1.622,0 3.221,-0.382 4.794,-1.145 1.574,-0.763 2.79,-1.844 3.649,-3.244 h 0.095 v 4.198 c 0,1.208 -0.159,2.345 -0.477,3.411 -0.318,1.064 -0.819,1.995 -1.502,2.79 -0.686,0.795 -1.583,1.423 -2.695,1.884 -1.114,0.461 -2.465,0.691 -4.055,0.691 -1.718,0 -3.348,-0.397 -4.89,-1.192 -1.543,-0.795 -2.759,-1.766 -3.648,-2.909 z m -29.144,-29.288 c 0.063,0.763 0.111,1.622 0.144,2.575 0.03,0.954 0.048,1.734 0.048,2.338 v 17.41 h 3.243 v -11.447 c 0,-1.495 0.19,-2.791 0.572,-3.889 0.382,-1.097 0.891,-2.003 1.526,-2.719 0.636,-0.715 1.36,-1.247 2.171,-1.598 0.811,-0.35 1.646,-0.524 2.504,-0.524 1.176,0 2.154,0.191 2.934,0.572 0.778,0.382 1.398,0.915 1.86,1.598 0.46,0.685 0.787,1.503 0.979,2.457 0.189,0.954 0.286,2.02 0.286,3.196 v 12.354 h 3.242 v -13.689 c 0,-2.768 -0.708,-4.992 -2.122,-6.678 -1.416,-1.686 -3.537,-2.528 -6.367,-2.528 -1.592,0 -3.102,0.405 -4.532,1.216 -1.431,0.812 -2.464,1.869 -3.101,3.172 h -0.096 c 0,-0.477 -0.016,-1.08 -0.047,-1.812 -0.032,-0.732 -0.08,-1.399 -0.143,-2.004 z m -10.876,-10.231 c -0.477,-0.43 -1.001,-0.644 -1.574,-0.644 -0.571,0 -1.097,0.214 -1.573,0.644 -0.478,0.429 -0.715,0.977 -0.715,1.646 0,0.668 0.237,1.217 0.715,1.646 0.477,0.429 1.002,0.645 1.573,0.645 0.573,0 1.098,-0.216 1.574,-0.645 0.478,-0.429 0.716,-0.978 0.716,-1.646 0,-0.67 -0.239,-1.217 -0.716,-1.646 m 0.048,10.231 h -3.244 v 22.323 h 3.244 z m -33.58,0 c 0.063,0.763 0.111,1.622 0.144,2.575 0.031,0.954 0.048,1.734 0.048,2.338 v 17.41 h 3.243 v -11.447 c 0,-1.495 0.19,-2.791 0.572,-3.889 0.382,-1.097 0.89,-2.003 1.526,-2.719 0.637,-0.715 1.359,-1.247 2.17,-1.598 0.812,-0.35 1.646,-0.524 2.504,-0.524 1.178,0 2.154,0.191 2.935,0.572 0.778,0.382 1.398,0.915 1.859,1.598 0.462,0.685 0.787,1.503 0.979,2.457 0.19,0.954 0.286,2.02 0.286,3.196 v 12.354 h 3.244 v -13.689 c 0,-2.768 -0.708,-4.992 -2.123,-6.678 -1.415,-1.686 -3.538,-2.528 -6.368,-2.528 -1.59,0 -3.101,0.405 -4.531,1.216 -1.431,0.812 -2.465,1.869 -3.101,3.172 H 580.6 c 0,-0.477 -0.016,-1.08 -0.048,-1.812 -0.032,-0.732 -0.079,-1.399 -0.143,-2.004 z m -19.366,4.913 v 17.41 h 3.244 v -11.421 c 0,-1.489 0.182,-2.768 0.548,-3.83 0.365,-1.062 0.843,-1.935 1.431,-2.616 0.588,-0.683 1.28,-1.183 2.075,-1.499 0.795,-0.318 1.622,-0.477 2.48,-0.477 0.445,0 0.891,0.032 1.335,0.095 0.445,0.064 0.764,0.127 0.954,0.191 l 0.431,-3.101 c -0.352,-0.096 -0.692,-0.158 -1.026,-0.19 -0.334,-0.032 -0.708,-0.048 -1.121,-0.048 -1.59,0 -3.021,0.405 -4.293,1.216 -1.272,0.812 -2.226,1.869 -2.862,3.172 h -0.095 c 0,-0.477 -0.017,-1.08 -0.048,-1.812 -0.032,-0.732 -0.08,-1.399 -0.143,-2.004 h -3.102 c 0.064,0.763 0.111,1.622 0.145,2.575 0.031,0.956 0.047,1.736 0.047,2.339 m -13.785,6.248 v 1.671 c 0,0.985 -0.159,1.924 -0.478,2.813 -0.317,0.89 -0.779,1.678 -1.383,2.361 -0.604,0.684 -1.352,1.225 -2.242,1.622 -0.89,0.397 -1.907,0.596 -3.053,0.596 -0.636,0 -1.264,-0.072 -1.884,-0.215 -0.62,-0.144 -1.186,-0.381 -1.693,-0.715 -0.509,-0.334 -0.915,-0.771 -1.217,-1.312 -0.302,-0.54 -0.453,-1.208 -0.453,-2.003 0,-1.05 0.351,-1.892 1.049,-2.528 0.7,-0.636 1.599,-1.12 2.695,-1.454 1.098,-0.334 2.321,-0.557 3.673,-0.669 1.353,-0.11 2.695,-0.167 4.031,-0.167 z m 0,-2.575 c -2.035,0 -3.999,0.072 -5.892,0.216 -1.892,0.143 -3.569,0.462 -5.031,0.957 -1.464,0.495 -2.632,1.245 -3.507,2.25 -0.875,1.004 -1.312,2.368 -1.312,4.091 0,1.245 0.246,2.298 0.739,3.159 0.493,0.861 1.112,1.563 1.86,2.105 0.746,0.543 1.574,0.934 2.48,1.174 0.906,0.237 1.789,0.357 2.646,0.357 1.813,0 3.363,-0.326 4.651,-0.978 1.288,-0.652 2.44,-1.725 3.458,-3.22 h 0.096 c 0,0.604 0.031,1.225 0.096,1.86 0.063,0.636 0.143,1.224 0.238,1.765 h 2.909 c -0.127,-0.636 -0.222,-1.415 -0.286,-2.337 -0.063,-0.922 -0.095,-1.812 -0.095,-2.672 v -9.778 c 0,-1.366 -0.223,-2.56 -0.668,-3.577 -0.446,-1.018 -1.066,-1.86 -1.86,-2.528 -0.796,-0.668 -1.717,-1.168 -2.767,-1.502 -1.049,-0.334 -2.178,-0.501 -3.387,-0.501 -1.908,0 -3.617,0.302 -5.127,0.906 -1.512,0.604 -2.728,1.367 -3.649,2.29 l 1.812,2.146 c 0.795,-0.794 1.765,-1.431 2.909,-1.908 1.146,-0.477 2.386,-0.715 3.722,-0.715 1.938,0 3.418,0.474 4.436,1.42 1.018,0.948 1.526,2.384 1.526,4.31 v 0.71 z m -23.826,-2.386 c -0.461,-1.335 -1.137,-2.504 -2.027,-3.506 -0.891,-1.001 -2.003,-1.796 -3.339,-2.385 -1.336,-0.588 -2.878,-0.882 -4.627,-0.882 -1.59,0 -3.069,0.294 -4.436,0.882 -1.368,0.589 -2.561,1.407 -3.578,2.457 -1.019,1.049 -1.812,2.289 -2.385,3.72 -0.572,1.432 -0.858,2.99 -0.858,4.675 0,1.687 0.293,3.244 0.882,4.676 0.588,1.431 1.392,2.671 2.409,3.72 1.018,1.05 2.234,1.869 3.649,2.457 1.415,0.588 2.948,0.882 4.603,0.882 1.844,0 3.57,-0.366 5.176,-1.097 1.605,-0.731 3.076,-1.939 4.412,-3.625 l -2.433,-1.908 c -0.637,1.018 -1.566,1.916 -2.79,2.695 -1.226,0.779 -2.681,1.169 -4.365,1.169 -1.145,0 -2.21,-0.215 -3.196,-0.645 -0.985,-0.43 -1.844,-1.009 -2.575,-1.741 -0.731,-0.731 -1.305,-1.59 -1.718,-2.575 -0.413,-0.985 -0.636,-2.035 -0.667,-3.148 h 18.507 c 0.031,-0.287 0.049,-0.556 0.049,-0.811 v -0.717 c -10e-4,-1.525 -0.232,-2.957 -0.693,-4.293 m -17.816,3.245 c 0.064,-0.954 0.303,-1.868 0.717,-2.743 0.412,-0.874 0.969,-1.652 1.669,-2.337 0.698,-0.684 1.51,-1.224 2.433,-1.622 0.922,-0.396 1.924,-0.596 3.005,-0.596 2.321,0 4.11,0.691 5.366,2.075 1.256,1.383 1.932,3.124 2.028,5.223 z m -12.879,-23.182 h -3.244 v 36.061 h 3.244 z"
   id="path10"
   inkscape:connector-curvature="0"
   style="fill:#87b926" />
	<path
   clip-path="url(#SVGID_2_)"
   d="m 441.843,350.296 c 0.382,-1.05 0.93,-1.973 1.646,-2.768 0.715,-0.795 1.598,-1.431 2.647,-1.907 1.049,-0.478 2.241,-0.717 3.577,-0.717 1.24,0 2.386,0.239 3.435,0.717 1.049,0.477 1.956,1.112 2.719,1.907 0.763,0.795 1.359,1.718 1.789,2.768 0.429,1.049 0.644,2.162 0.644,3.339 0,1.304 -0.215,2.488 -0.644,3.553 -0.43,1.066 -1.026,1.98 -1.789,2.743 -0.763,0.763 -1.67,1.352 -2.719,1.765 -1.049,0.414 -2.194,0.62 -3.435,0.62 -1.336,0 -2.528,-0.229 -3.577,-0.691 -1.05,-0.46 -1.933,-1.09 -2.647,-1.885 -0.716,-0.794 -1.264,-1.717 -1.646,-2.766 -0.383,-1.05 -0.572,-2.163 -0.572,-3.339 0,-1.177 0.189,-2.29 0.572,-3.339 m -3.531,21.751 c 1.336,1.398 2.94,2.496 4.817,3.291 1.876,0.795 3.848,1.192 5.915,1.192 2.48,0 4.499,-0.382 6.059,-1.145 1.557,-0.763 2.79,-1.717 3.695,-2.862 0.907,-1.145 1.527,-2.401 1.861,-3.769 0.334,-1.368 0.501,-2.655 0.501,-3.863 v -22.133 h -3.244 v 3.864 h -0.095 c -0.891,-1.432 -2.116,-2.528 -3.673,-3.292 -1.56,-0.764 -3.149,-1.145 -4.771,-1.145 -1.75,0 -3.332,0.302 -4.746,0.906 -1.415,0.604 -2.623,1.431 -3.626,2.479 -1.001,1.051 -1.78,2.274 -2.337,3.674 -0.557,1.4 -0.835,2.894 -0.835,4.483 0,1.622 0.278,3.133 0.835,4.532 0.557,1.398 1.336,2.599 2.337,3.601 1.003,1.002 2.211,1.789 3.626,2.361 1.414,0.572 2.996,0.859 4.746,0.859 1.621,0 3.22,-0.383 4.794,-1.146 1.574,-0.763 2.79,-1.844 3.649,-3.244 h 0.095 v 4.198 c 0,1.208 -0.159,2.345 -0.477,3.41 -0.318,1.064 -0.819,1.996 -1.503,2.791 -0.685,0.794 -1.582,1.423 -2.695,1.884 -1.113,0.461 -2.464,0.692 -4.054,0.692 -1.717,0 -3.347,-0.398 -4.89,-1.193 -1.543,-0.795 -2.76,-1.765 -3.648,-2.91 z m -29.144,-29.288 c 0.063,0.763 0.111,1.622 0.143,2.576 0.031,0.954 0.048,1.732 0.048,2.337 v 17.411 h 3.243 v -11.448 c 0,-1.495 0.191,-2.791 0.573,-3.888 0.381,-1.098 0.89,-2.004 1.526,-2.72 0.636,-0.715 1.36,-1.248 2.17,-1.598 0.811,-0.349 1.646,-0.525 2.505,-0.525 1.176,0 2.154,0.191 2.933,0.573 0.778,0.381 1.398,0.914 1.86,1.598 0.46,0.685 0.787,1.502 0.978,2.456 0.191,0.954 0.287,2.021 0.287,3.196 v 12.355 h 3.243 v -13.69 c 0,-2.767 -0.708,-4.992 -2.122,-6.678 -1.416,-1.686 -3.538,-2.528 -6.368,-2.528 -1.591,0 -3.101,0.405 -4.532,1.216 -1.431,0.812 -2.465,1.868 -3.1,3.172 h -0.096 c 0,-0.477 -0.016,-1.081 -0.047,-1.812 -0.033,-0.731 -0.08,-1.399 -0.144,-2.003 z m -10.876,-10.232 c -0.477,-0.429 -1.001,-0.644 -1.574,-0.644 -0.572,0 -1.097,0.215 -1.574,0.644 -0.477,0.431 -0.715,0.979 -0.715,1.646 0,0.667 0.238,1.216 0.715,1.646 0.477,0.43 1.002,0.645 1.574,0.645 0.573,0 1.097,-0.215 1.574,-0.645 0.477,-0.43 0.716,-0.978 0.716,-1.646 0,-0.668 -0.238,-1.215 -0.716,-1.646 m 0.048,10.232 h -3.244 v 22.324 h 3.244 z m -44.599,3.816 h -0.096 c 0,-0.477 -0.016,-1.081 -0.047,-1.812 -0.032,-0.731 -0.08,-1.399 -0.143,-2.003 h -3.101 c 0.063,0.763 0.111,1.622 0.143,2.576 0.031,0.954 0.048,1.732 0.048,2.337 v 17.411 h 3.243 v -11.448 c 0,-1.495 0.191,-2.791 0.573,-3.888 0.381,-1.098 0.882,-2.004 1.502,-2.72 0.62,-0.715 1.32,-1.248 2.099,-1.598 0.779,-0.349 1.55,-0.525 2.314,-0.525 1.08,0 1.971,0.167 2.671,0.501 0.699,0.334 1.248,0.812 1.646,1.432 0.397,0.62 0.675,1.376 0.834,2.266 0.159,0.891 0.239,1.877 0.239,2.957 v 13.023 h 3.243 v -11.878 c 0,-1.05 0.111,-2.066 0.334,-3.054 0.222,-0.984 0.58,-1.867 1.074,-2.646 0.492,-0.779 1.144,-1.407 1.955,-1.884 0.811,-0.478 1.805,-0.717 2.981,-0.717 2.099,0 3.585,0.717 4.46,2.147 0.875,1.43 1.312,3.323 1.312,5.676 v 12.355 h 3.244 v -13.69 c 0,-2.767 -0.708,-4.992 -2.123,-6.678 -1.415,-1.686 -3.538,-2.528 -6.368,-2.528 -1.812,0 -3.379,0.405 -4.698,1.216 -1.32,0.812 -2.361,1.98 -3.125,3.506 -0.381,-0.953 -0.834,-1.732 -1.359,-2.337 -0.525,-0.604 -1.097,-1.089 -1.717,-1.455 -0.62,-0.364 -1.257,-0.611 -1.908,-0.739 -0.652,-0.126 -1.281,-0.19 -1.884,-0.19 -1.622,0 -3.093,0.405 -4.413,1.216 -1.32,0.81 -2.298,1.867 -2.933,3.171 m -22.752,1.097 v 17.411 h 3.243 v -11.422 c 0,-1.489 0.183,-2.768 0.549,-3.83 0.365,-1.063 0.842,-1.936 1.431,-2.617 0.588,-0.682 1.279,-1.182 2.075,-1.498 0.794,-0.318 1.621,-0.478 2.48,-0.478 0.445,0 0.89,0.032 1.336,0.097 0.445,0.063 0.763,0.127 0.954,0.19 l 0.429,-3.101 c -0.35,-0.095 -0.692,-0.159 -1.026,-0.191 -0.333,-0.031 -0.708,-0.047 -1.121,-0.047 -1.59,0 -3.021,0.405 -4.293,1.216 -1.272,0.812 -2.226,1.868 -2.862,3.172 h -0.095 c 0,-0.477 -0.016,-1.081 -0.048,-1.812 -0.032,-0.731 -0.079,-1.399 -0.143,-2.003 h -3.1 c 0.063,0.763 0.111,1.622 0.143,2.576 0.031,0.955 0.048,1.733 0.048,2.337 m -13.38,9.755 c -0.398,1.097 -0.962,2.051 -1.693,2.862 -0.732,0.811 -1.622,1.446 -2.671,1.907 -1.05,0.461 -2.227,0.691 -3.53,0.691 -1.305,0 -2.473,-0.23 -3.506,-0.691 -1.034,-0.461 -1.916,-1.097 -2.648,-1.907 -0.731,-0.812 -1.296,-1.766 -1.693,-2.862 -0.398,-1.097 -0.596,-2.267 -0.596,-3.506 0,-1.24 0.198,-2.409 0.596,-3.506 0.397,-1.098 0.962,-2.052 1.693,-2.862 0.732,-0.812 1.614,-1.455 2.648,-1.932 1.033,-0.478 2.201,-0.717 3.506,-0.717 1.303,0 2.48,0.239 3.53,0.717 1.049,0.477 1.939,1.12 2.671,1.932 0.731,0.811 1.295,1.765 1.693,2.862 0.397,1.097 0.596,2.266 0.596,3.506 0,1.24 -0.199,2.41 -0.596,3.506 m 3.148,-8.18 c -0.589,-1.432 -1.407,-2.672 -2.456,-3.721 -1.05,-1.05 -2.306,-1.868 -3.769,-2.457 -1.463,-0.588 -3.069,-0.882 -4.817,-0.882 -1.717,0 -3.308,0.294 -4.77,0.882 -1.463,0.589 -2.719,1.407 -3.769,2.457 -1.049,1.049 -1.868,2.289 -2.456,3.721 -0.589,1.431 -0.883,2.989 -0.883,4.675 0,1.686 0.294,3.243 0.883,4.674 0.588,1.431 1.407,2.672 2.456,3.721 1.05,1.049 2.306,1.868 3.769,2.457 1.462,0.588 3.053,0.882 4.77,0.882 1.748,0 3.354,-0.294 4.817,-0.882 1.463,-0.589 2.719,-1.408 3.769,-2.457 1.049,-1.049 1.867,-2.29 2.456,-3.721 0.588,-1.431 0.883,-2.988 0.883,-4.674 0,-1.686 -0.295,-3.245 -0.883,-4.675 m -28.31,-6.488 H 287.2 v -5.725 c 0,-0.794 0.056,-1.542 0.167,-2.241 0.111,-0.699 0.318,-1.312 0.62,-1.836 0.302,-0.525 0.732,-0.932 1.288,-1.218 0.556,-0.286 1.264,-0.429 2.123,-0.429 0.445,0 0.842,0.032 1.193,0.095 0.349,0.064 0.699,0.144 1.049,0.239 l 0.572,-2.862 c -0.413,-0.127 -0.858,-0.215 -1.335,-0.262 -0.477,-0.048 -0.923,-0.072 -1.336,-0.072 -2.576,0 -4.484,0.732 -5.724,2.194 -1.24,1.463 -1.86,3.467 -1.86,6.01 v 6.106 h -4.675 v 2.719 h 4.675 v 19.605 h 3.243 v -19.605 h 5.247 z m -18.65,3.434 c -0.731,-1.271 -1.829,-2.257 -3.291,-2.957 -1.463,-0.699 -2.974,-1.049 -4.531,-1.049 -1.018,0 -2.004,0.127 -2.958,0.381 -0.954,0.255 -1.805,0.645 -2.552,1.169 -0.747,0.525 -1.344,1.192 -1.788,2.003 -0.446,0.812 -0.668,1.789 -0.668,2.935 0,1.049 0.206,1.924 0.62,2.623 0.413,0.7 0.937,1.28 1.574,1.74 0.636,0.463 1.327,0.812 2.075,1.051 0.747,0.237 1.455,0.437 2.123,0.596 2.13,0.509 3.76,1.058 4.889,1.646 1.128,0.588 1.693,1.471 1.693,2.646 0,0.732 -0.143,1.344 -0.429,1.836 -0.286,0.494 -0.668,0.899 -1.145,1.217 -0.477,0.318 -1.034,0.541 -1.669,0.668 -0.637,0.127 -1.305,0.19 -2.004,0.19 -1.335,0 -2.56,-0.333 -3.673,-1.001 -1.113,-0.668 -1.955,-1.495 -2.528,-2.481 l -2.576,1.908 c 1.018,1.495 2.321,2.592 3.912,3.292 1.589,0.699 3.227,1.049 4.913,1.049 1.017,0 2.027,-0.119 3.029,-0.357 1.001,-0.238 1.9,-0.637 2.695,-1.192 0.794,-0.556 1.438,-1.271 1.932,-2.146 0.492,-0.874 0.739,-1.947 0.739,-3.221 0,-1.748 -0.628,-3.14 -1.884,-4.173 -1.257,-1.033 -3.204,-1.82 -5.843,-2.361 -1.845,-0.382 -3.196,-0.851 -4.055,-1.407 -0.858,-0.557 -1.288,-1.359 -1.288,-2.408 0,-0.604 0.135,-1.129 0.406,-1.574 0.27,-0.445 0.627,-0.811 1.073,-1.098 0.445,-0.286 0.954,-0.492 1.526,-0.62 0.573,-0.126 1.145,-0.191 1.718,-0.191 1.24,0 2.344,0.295 3.315,0.883 0.969,0.59 1.693,1.345 2.17,2.267 z m -44.646,-3.434 c 0.063,0.763 0.111,1.622 0.143,2.576 0.031,0.954 0.047,1.732 0.047,2.337 v 17.411 h 3.244 v -11.448 c 0,-1.495 0.191,-2.791 0.572,-3.888 0.382,-1.098 0.89,-2.004 1.527,-2.72 0.636,-0.715 1.359,-1.248 2.17,-1.598 0.811,-0.349 1.646,-0.525 2.504,-0.525 1.176,0 2.154,0.191 2.934,0.573 0.779,0.381 1.399,0.914 1.86,1.598 0.461,0.685 0.787,1.502 0.978,2.456 0.191,0.954 0.286,2.021 0.286,3.196 v 12.355 h 3.244 v -13.69 c 0,-2.767 -0.708,-4.992 -2.123,-6.678 -1.415,-1.686 -3.538,-2.528 -6.368,-2.528 -1.59,0 -3.1,0.405 -4.531,1.216 -1.431,0.812 -2.465,1.868 -3.101,3.172 h -0.095 c 0,-0.477 -0.017,-1.081 -0.048,-1.812 -0.032,-0.731 -0.08,-1.399 -0.143,-2.003 z m -13.595,11.162 v 1.669 c 0,0.985 -0.159,1.925 -0.477,2.814 -0.318,0.891 -0.779,1.678 -1.383,2.361 -0.605,0.684 -1.352,1.224 -2.242,1.622 -0.891,0.397 -1.908,0.596 -3.053,0.596 -0.636,0 -1.264,-0.072 -1.884,-0.215 -0.62,-0.143 -1.185,-0.381 -1.693,-0.715 -0.509,-0.334 -0.915,-0.771 -1.217,-1.312 -0.302,-0.54 -0.453,-1.208 -0.453,-2.004 0,-1.049 0.35,-1.891 1.05,-2.527 0.699,-0.636 1.598,-1.121 2.695,-1.454 1.097,-0.334 2.321,-0.557 3.673,-0.668 1.351,-0.111 2.695,-0.167 4.03,-0.167 z m 0,-2.576 c -2.035,0 -3.999,0.072 -5.891,0.215 -1.892,0.144 -3.57,0.463 -5.032,0.958 -1.463,0.495 -2.632,1.245 -3.506,2.249 -0.875,1.005 -1.312,2.369 -1.312,4.092 0,1.245 0.246,2.297 0.74,3.159 0.492,0.861 1.112,1.564 1.86,2.106 0.747,0.543 1.574,0.933 2.48,1.173 0.907,0.237 1.789,0.357 2.648,0.357 1.812,0 3.362,-0.326 4.65,-0.978 1.288,-0.652 2.441,-1.726 3.459,-3.22 h 0.095 c 0,0.604 0.031,1.225 0.095,1.86 0.064,0.635 0.144,1.225 0.239,1.766 h 2.91 c -0.128,-0.637 -0.223,-1.415 -0.287,-2.339 -0.064,-0.922 -0.095,-1.812 -0.095,-2.671 v -9.777 c 0,-1.367 -0.223,-2.561 -0.668,-3.578 -0.445,-1.018 -1.066,-1.86 -1.86,-2.528 -0.795,-0.668 -1.717,-1.169 -2.767,-1.503 -1.049,-0.333 -2.178,-0.5 -3.386,-0.5 -1.908,0 -3.618,0.302 -5.128,0.906 -1.511,0.604 -2.727,1.368 -3.649,2.29 l 1.812,2.146 c 0.795,-0.795 1.765,-1.431 2.91,-1.907 1.145,-0.478 2.385,-0.717 3.721,-0.717 1.939,0 3.418,0.476 4.436,1.421 1.017,0.947 1.526,2.385 1.526,4.31 z m -33.055,-3.673 v 17.411 h 3.243 v -11.422 c 0,-1.489 0.183,-2.768 0.549,-3.83 0.365,-1.063 0.842,-1.936 1.431,-2.617 0.588,-0.682 1.279,-1.182 2.075,-1.498 0.794,-0.318 1.621,-0.478 2.48,-0.478 0.445,0 0.89,0.032 1.336,0.097 0.445,0.063 0.763,0.127 0.954,0.19 l 0.429,-3.101 c -0.35,-0.095 -0.692,-0.159 -1.026,-0.191 -0.334,-0.031 -0.708,-0.047 -1.121,-0.047 -1.59,0 -3.021,0.405 -4.293,1.216 -1.272,0.812 -2.226,1.868 -2.862,3.172 h -0.095 c 0,-0.477 -0.016,-1.081 -0.048,-1.812 -0.032,-0.731 -0.079,-1.399 -0.143,-2.003 h -3.1 c 0.062,0.763 0.111,1.622 0.143,2.576 0.031,0.955 0.048,1.733 0.048,2.337 m -7.44,-4.913 h -6.296 v -6.296 h -3.244 v 6.296 h -4.627 v 2.719 h 4.627 v 13.928 c 0,1.24 0.183,2.242 0.549,3.005 0.365,0.765 0.834,1.368 1.407,1.813 0.572,0.446 1.192,0.748 1.86,0.906 0.668,0.159 1.304,0.238 1.908,0.238 0.731,0 1.407,-0.056 2.027,-0.167 0.62,-0.111 1.217,-0.277 1.789,-0.501 l -0.143,-2.813 c -0.446,0.223 -0.915,0.397 -1.407,0.523 -0.494,0.129 -0.962,0.191 -1.407,0.191 -0.477,0 -0.923,-0.055 -1.336,-0.167 -0.414,-0.111 -0.771,-0.317 -1.073,-0.62 -0.303,-0.302 -0.533,-0.723 -0.692,-1.264 -0.159,-0.54 -0.238,-1.225 -0.238,-2.051 v -13.022 h 6.296 z"
   id="path12"
   inkscape:connector-curvature="0"
   style="fill:#7ab0e0" />
	<path
   clip-path="url(#SVGID_2_)"
   d="m 603.372,235.369 2.303,0.576 c -0.335,-0.356 -0.716,-0.634 -1.163,-0.722 -0.384,0.017 -0.779,0.09 -1.14,0.146 m 36.409,27.745 c -0.237,0.56 -0.463,0.766 -0.783,1.242 -0.279,0.417 -0.392,1.245 -0.963,1.385 0.015,0.627 -0.212,0.476 -0.475,0.907 -0.263,0.428 -0.256,0.928 -0.46,1.369 -0.422,0.913 -1.175,1.641 -1.699,2.477 -0.25,0.399 -0.298,0.658 -0.65,1.009 -0.377,0.374 -0.774,0.697 -1.167,1.055 -0.684,0.623 -1.478,1.404 -1.961,2.11 -0.421,0.614 -1.132,1.087 -1.252,1.831 -0.021,0.136 0.007,0.408 -0.033,0.524 -0.06,0.175 -0.262,0.462 -0.308,0.618 -0.106,0.357 -0.209,1.115 -0.094,1.496 0.054,0.181 0.28,0.337 0.307,0.418 0.075,0.229 0.068,0.417 0.126,0.676 0.116,0.516 0.122,0.982 0.194,1.502 0.129,0.935 0.12,1.809 0,2.781 -0.104,0.837 0.096,1.854 -0.22,2.632 -0.132,0.326 -0.406,0.859 -0.63,1.146 -0.357,0.459 -0.772,0.432 -1.262,0.625 -0.627,0.248 -1.151,0.631 -1.73,1.006 -0.792,0.511 -1.008,1.083 -0.997,2.053 0.008,0.8 0.075,1.593 -0.193,2.301 -0.353,0.932 -0.878,1.449 -1.523,2.169 -0.438,0.489 -0.536,0.481 -0.587,1.146 -0.041,0.554 -0.118,0.789 -0.43,1.257 -0.406,0.61 -0.825,1.221 -1.247,1.822 -0.864,1.228 -1.714,2.55 -3.305,2.866 -0.782,0.156 -1.568,0.389 -2.308,0.722 -1.027,0.462 -1.646,0.575 -2.824,0.58 -0.615,0.002 -1.05,0.182 -1.356,-0.38 -0.115,-0.212 -0.17,-0.713 -0.236,-0.948 -0.229,-0.813 -0.297,-1.646 -0.57,-2.364 -0.244,-0.638 -0.497,-1.433 -0.763,-2.067 -0.161,-0.389 -0.295,-0.493 -0.387,-0.945 -0.133,-0.658 -0.053,-0.94 -0.387,-1.536 -0.332,-0.594 -0.53,-1.336 -0.849,-1.946 -0.102,-0.193 -0.386,-0.338 -0.502,-0.556 -0.085,-0.161 -0.13,-0.404 -0.188,-0.58 -0.22,-0.666 -0.521,-1.441 -0.758,-2.097 -0.276,-0.764 -0.678,-1.476 -0.776,-2.307 -0.115,-0.978 0.291,-1.815 0.398,-2.679 0.059,-0.475 -0.07,-0.9 0.075,-1.364 0.062,-0.194 0.247,-0.328 0.308,-0.565 0.038,-0.151 -0.006,-0.418 -0.009,-0.576 -0.01,-0.454 -0.035,-0.745 0.24,-1.106 0.288,-0.378 0.563,-0.257 0.728,-0.803 0.111,-0.367 -0.012,-0.953 -0.009,-1.347 0.003,-0.494 -0.137,-0.735 -0.244,-1.103 -0.213,-0.722 -0.027,-1.641 -0.327,-2.36 -0.376,-0.904 -1.22,-1.311 -1.497,-2.296 -0.164,-0.585 -0.184,-0.521 -0.67,-0.912 -0.284,-0.23 -0.811,-0.679 -0.926,-1.003 -0.138,-0.382 0.019,-1.109 0.019,-1.534 0,-0.291 -0.08,-0.698 -0.009,-0.974 0.083,-0.318 0.314,-0.45 0.413,-0.758 0.08,-0.251 0.053,-1.083 -0.011,-1.342 -0.08,-0.324 -0.318,-0.456 -0.413,-0.763 -0.084,-0.276 0.054,-0.647 -0.009,-0.944 -0.901,-0.12 -1.76,0.135 -2.567,0.027 -0.822,-0.11 -0.58,-0.164 -0.996,-0.83 -0.308,-0.492 -0.646,-0.855 -1.194,-0.947 -0.915,-0.155 -1.763,0.059 -2.509,0.429 -0.205,0.103 -0.351,0.248 -0.57,0.34 -0.18,0.076 -0.404,0.105 -0.579,0.19 -0.498,0.241 -0.524,0.373 -1.147,0.387 -0.942,0.024 -1.95,0.089 -2.887,0 -0.405,-0.039 -0.744,-0.145 -1.142,-0.196 -0.503,-0.064 -1.043,0.088 -1.544,0.009 -1.71,-0.269 -3.017,-1.838 -4.226,-2.978 -0.545,-0.513 -1.084,-1.423 -1.38,-2.163 -0.108,-0.269 -0.304,-0.632 -0.343,-0.949 -0.053,-0.436 0.141,-0.986 0.03,-1.405 -0.06,-0.23 -0.323,-0.143 -0.419,-0.359 -0.023,-0.055 -0.125,-0.576 -0.133,-0.643 -0.04,-0.316 -0.149,-0.686 -0.193,-0.94 -0.063,-0.37 -0.255,-0.777 -0.248,-1.124 0.007,-0.321 0.209,-0.727 0.206,-1.145 -0.012,-1.819 -0.728,-3.395 -0.048,-5.184 0.555,-1.459 1.267,-3.016 2.407,-4.183 0.604,-0.617 1.442,-0.819 2.203,-1.173 1.087,-0.507 1.064,-1.42 1.197,-2.51 0.059,-0.48 -0.155,-1.096 -0.024,-1.55 0.01,-0.032 0.383,-0.533 0.403,-0.56 0.108,-0.143 0.193,-0.28 0.332,-0.426 0.291,-0.307 0.819,-0.51 1.202,-0.683 0.451,-0.204 0.983,-0.465 1.499,-0.454 -10e-4,-0.526 0.991,-0.665 1.381,-0.776 0.869,-0.248 1.818,-0.15 2.744,-0.15 0.771,0 1.31,0.044 2.008,-0.288 0.587,-0.279 1.12,-0.566 1.778,-0.723 1.104,-0.264 2.157,-0.193 3.295,-0.322 0.077,-0.009 0.159,-0.022 0.241,-0.035 l -0.668,-0.167 c 0.552,0 1.173,-0.08 1.721,-0.004 0.03,0.005 0.057,0.019 0.087,0.025 0.591,-0.029 1.14,0.091 1.431,0.704 -0.056,0.014 -0.112,0.028 -0.169,0.043 l -0.099,-0.025 c 0.051,0.053 0.103,0.103 0.15,0.158 0.344,0.401 0.447,0.98 0.712,1.406 0.298,0.48 1.059,1.15 1.533,1.534 0.53,0.43 0.961,0.443 1.535,0.702 0.368,0.165 0.606,0.486 0.974,0.656 0.271,0.126 0.644,0.153 0.954,0.322 0.419,0.229 0.813,0.545 1.348,0.429 0.865,-0.188 0.653,-0.757 0.777,-1.513 0.811,-0.136 1.268,0.032 1.9,0.402 0.623,0.365 1.404,0.79 2.146,0.921 1.463,0.258 2.923,-0.165 4.374,0.24 0.806,0.225 1.479,0.186 2.12,0.757 0.575,0.514 0.24,1.019 0.375,1.684 0.099,0.484 0.217,0.363 0.403,0.756 -0.009,0.135 -0.021,0.269 -0.036,0.402 0.106,0.205 0.236,0.352 0.356,0.569 0.275,0.49 0.609,1.851 1.16,1.955 0.072,0.868 0.431,1.32 0.802,2.064 0.368,0.739 0.63,1.524 0.911,2.297 0.699,1.909 1.613,3.951 2.775,5.774 0.177,0.277 0.525,0.513 0.682,0.8 0.212,0.386 0.264,0.808 0.562,1.166 0.48,0.577 1.537,1.245 2.21,1.631 0.8,0.459 1.303,0.006 2.059,-0.191 1.018,-0.265 2.806,0.178 3.615,-0.515 0.205,0.949 0.069,1.921 -0.288,2.762 m 18.139,5.091 c 0,-26.764 -21.695,-48.459 -48.459,-48.459 -26.763,0 -48.459,21.695 -48.459,48.459 0,26.763 21.696,48.459 48.459,48.459 26.764,0 48.459,-21.696 48.459,-48.459"
   id="path14"
   inkscape:connector-curvature="0"
   style="fill:#fdc41f" />
	<path
   clip-path="url(#SVGID_2_)"
   d="m 316.557,226.961 c 0,-1.59 -0.95,-3.002 -2.848,-4.241 -1.901,-1.235 -3.69,-1.854 -5.367,-1.854 -1.59,0 -2.981,0.751 -4.173,2.252 -1.193,1.503 -1.789,3.048 -1.789,4.638 0,0.619 0.265,1.457 0.795,2.517 1.766,3.623 2.65,8.348 2.65,14.178 0,15.989 -0.663,27.781 -1.988,35.377 -2.915,16.254 -8.79,24.379 -17.622,24.379 -4.594,0 -8.083,-2.472 -10.468,-7.419 -1.944,-3.886 -2.915,-8.348 -2.915,-13.383 v -16.429 c 0,-3.621 0.441,-9.011 1.325,-16.165 0.882,-7.156 1.325,-12.499 1.325,-16.033 0,-1.06 0.441,-2.517 1.325,-4.373 0.882,-1.854 1.325,-3.266 1.325,-4.239 0,-1.855 -1.503,-2.783 -4.505,-2.783 -2.65,0 -5.345,0.576 -8.082,1.723 -3.534,1.414 -5.3,3.225 -5.3,5.432 0,0.708 0.265,1.745 0.795,3.114 0.53,1.37 0.795,2.408 0.795,3.114 0,4.064 -0.265,10.181 -0.795,18.351 -0.53,8.171 -0.795,14.289 -0.795,18.351 0,8.304 0.662,14.929 1.987,19.875 1.855,6.979 5.255,12.501 10.203,16.562 4.505,3.621 9.759,5.434 15.767,5.434 6.712,0 12.366,-2.432 16.96,-7.287 3.71,-3.887 6.625,-10.909 8.745,-21.068 1.766,-8.215 2.65,-15.987 2.65,-23.32 z m -84.879,49.77 c -1.59,6.991 -4.505,13.229 -8.745,18.715 -5.124,6.46 -10.822,9.69 -17.093,9.69 -6.979,0 -10.467,-4.16 -10.467,-12.478 v -28.537 c 0,-5.487 0.683,-10.507 2.054,-15.064 1.368,-4.557 3.908,-8.782 7.618,-12.677 4.24,-4.424 8.524,-6.637 12.853,-6.637 10.6,0 15.9,9.027 15.9,27.078 0,6.991 -0.708,13.629 -2.12,19.91 m 8.347,-45.249 c -5.389,-7.606 -13.117,-11.411 -23.187,-11.411 -8.304,0 -14.708,3.312 -19.213,9.937 0.441,-2.12 -0.198,-3.975 -1.921,-5.565 -1.722,-1.59 -3.689,-2.385 -5.896,-2.385 -1.59,0 -2.961,0.489 -4.108,1.464 -1.149,0.977 -1.722,2.263 -1.722,3.859 0,0.267 0.043,0.623 0.132,1.066 0.087,0.443 0.133,0.754 0.133,0.93 0,7.097 -0.199,17.742 -0.596,31.936 -0.398,14.194 -0.597,24.84 -0.597,31.937 0,8.252 0.882,14.861 2.65,19.827 1.412,1.153 2.65,1.731 3.71,1.731 1.766,0 3.578,-0.973 5.433,-2.915 3.356,1.942 7.331,2.915 11.925,2.915 12.807,0 23.009,-6.633 30.607,-19.902 6.36,-11.146 9.54,-23.664 9.54,-37.551 0,-10.526 -2.298,-19.149 -6.89,-25.873 m -81.618,66.366 c -3.799,0 -8.923,1.017 -15.37,3.047 -6.449,2.034 -11.352,3.048 -14.707,3.048 -3.975,0 -6.406,-2.561 -7.288,-7.685 -0.265,-1.325 -0.397,-5.387 -0.397,-12.19 0,-0.971 0.086,-2.253 0.265,-3.842 0.175,-0.971 0.463,-1.501 0.861,-1.59 0.397,-0.087 0.861,-0.176 1.391,-0.265 3.71,-0.706 7.374,-1.458 10.998,-2.253 4.326,-0.795 8.036,-1.192 11.13,-1.192 1.235,0 2.206,0.221 2.915,0.662 1.5,-0.176 2.914,-0.352 4.24,-0.53 1.325,-0.176 1.987,-1.368 1.987,-3.577 0,-0.617 -0.443,-2.34 -1.325,-5.168 -3.358,-1.59 -6.317,-2.385 -8.877,-2.385 -2.299,0 -5.611,0.576 -9.938,1.722 -4.329,1.15 -7.642,1.723 -9.937,1.723 -1.68,0 -2.518,-0.927 -2.518,-2.783 0,-12.365 0.484,-20.669 1.458,-24.909 0.265,-1.147 0.705,-1.81 1.325,-1.988 0.616,-0.176 1.279,-0.308 1.987,-0.397 12.366,-3.18 22.127,-4.771 29.282,-4.771 0.53,0 1.346,0.067 2.452,0.199 1.103,0.133 1.921,0.199 2.451,0.199 4.327,0 6.493,-1.633 6.493,-4.902 0,-2.207 -1.325,-3.93 -3.976,-5.168 -1.944,-0.882 -4.196,-1.325 -6.757,-1.325 -4.418,0 -11.087,0.841 -20.007,2.518 -6.804,1.325 -13.605,2.606 -20.405,3.842 -4.419,0.708 -6.625,3.093 -6.625,7.155 0,0.53 0.086,1.391 0.265,2.584 0.175,1.192 0.265,2.099 0.265,2.716 0,0.089 -0.046,0.795 -0.133,2.12 -0.884,9.894 -1.325,23.32 -1.325,40.28 0,21.554 7.109,32.33 21.333,32.33 3.796,0 9.295,-1.148 16.496,-3.444 7.198,-2.297 12.697,-3.445 16.496,-3.445 0.352,0 0.861,0.065 1.524,0.199 0.662,0.132 1.169,0.197 1.524,0.197 1.325,0 2.385,-0.74 3.18,-2.225 0.616,-1.135 0.927,-2.443 0.927,-3.925 -1.768,-3.054 -5.654,-4.582 -11.66,-4.582"
   id="path16"
   inkscape:connector-curvature="0"
   style="fill:#7ab0e0" />
	<path
   clip-path="url(#SVGID_2_)"
   stroke-miterlimit="10.6"
   d="m 316.557,226.961 c 0,-1.59 -0.95,-3.002 -2.848,-4.241 -1.901,-1.235 -3.69,-1.854 -5.367,-1.854 -1.59,0 -2.981,0.751 -4.173,2.252 -1.193,1.503 -1.789,3.048 -1.789,4.638 0,0.619 0.265,1.457 0.795,2.517 1.766,3.623 2.65,8.348 2.65,14.178 0,15.989 -0.663,27.781 -1.988,35.377 -2.915,16.254 -8.79,24.379 -17.622,24.379 -4.594,0 -8.083,-2.472 -10.468,-7.419 -1.944,-3.886 -2.915,-8.348 -2.915,-13.383 v -16.429 c 0,-3.621 0.441,-9.011 1.325,-16.165 0.882,-7.156 1.325,-12.499 1.325,-16.033 0,-1.06 0.441,-2.517 1.325,-4.373 0.882,-1.854 1.325,-3.266 1.325,-4.239 0,-1.855 -1.503,-2.783 -4.505,-2.783 -2.65,0 -5.345,0.576 -8.082,1.723 -3.534,1.414 -5.3,3.225 -5.3,5.432 0,0.708 0.265,1.745 0.795,3.114 0.53,1.37 0.795,2.408 0.795,3.114 0,4.064 -0.265,10.181 -0.795,18.351 -0.53,8.171 -0.795,14.289 -0.795,18.351 0,8.304 0.662,14.929 1.987,19.875 1.855,6.979 5.255,12.501 10.203,16.562 4.505,3.621 9.759,5.434 15.767,5.434 6.712,0 12.366,-2.432 16.96,-7.287 3.71,-3.887 6.625,-10.909 8.745,-21.068 1.766,-8.215 2.65,-15.987 2.65,-23.32 z m -84.879,49.77 c -1.59,6.991 -4.505,13.229 -8.745,18.715 -5.124,6.46 -10.822,9.69 -17.093,9.69 -6.979,0 -10.467,-4.16 -10.467,-12.478 v -28.537 c 0,-5.487 0.683,-10.507 2.054,-15.064 1.368,-4.557 3.908,-8.782 7.618,-12.677 4.24,-4.424 8.524,-6.637 12.853,-6.637 10.6,0 15.9,9.027 15.9,27.078 0,6.991 -0.708,13.629 -2.12,19.91 z m 8.347,-45.249 c -5.389,-7.606 -13.117,-11.411 -23.187,-11.411 -8.304,0 -14.708,3.312 -19.213,9.937 0.441,-2.12 -0.198,-3.975 -1.921,-5.565 -1.722,-1.59 -3.689,-2.385 -5.896,-2.385 -1.59,0 -2.961,0.489 -4.108,1.464 -1.149,0.977 -1.722,2.263 -1.722,3.859 0,0.267 0.043,0.623 0.132,1.066 0.087,0.443 0.133,0.754 0.133,0.93 0,7.097 -0.199,17.742 -0.596,31.936 -0.398,14.194 -0.597,24.84 -0.597,31.937 0,8.252 0.882,14.861 2.65,19.827 1.412,1.153 2.65,1.731 3.71,1.731 1.766,0 3.578,-0.973 5.433,-2.915 3.356,1.942 7.331,2.915 11.925,2.915 12.807,0 23.009,-6.633 30.607,-19.902 6.36,-11.146 9.54,-23.664 9.54,-37.551 0,-10.526 -2.298,-19.149 -6.89,-25.873 z m -81.618,66.366 c -3.799,0 -8.923,1.017 -15.37,3.047 -6.449,2.034 -11.352,3.048 -14.707,3.048 -3.975,0 -6.406,-2.561 -7.288,-7.685 -0.265,-1.325 -0.397,-5.387 -0.397,-12.19 0,-0.971 0.086,-2.253 0.265,-3.842 0.175,-0.971 0.463,-1.501 0.861,-1.59 0.397,-0.087 0.861,-0.176 1.391,-0.265 3.71,-0.706 7.374,-1.458 10.998,-2.253 4.326,-0.795 8.036,-1.192 11.13,-1.192 1.235,0 2.206,0.221 2.915,0.662 1.5,-0.176 2.914,-0.352 4.24,-0.53 1.325,-0.176 1.987,-1.368 1.987,-3.577 0,-0.617 -0.443,-2.34 -1.325,-5.168 -3.358,-1.59 -6.317,-2.385 -8.877,-2.385 -2.299,0 -5.611,0.576 -9.938,1.722 -4.329,1.15 -7.642,1.723 -9.937,1.723 -1.68,0 -2.518,-0.927 -2.518,-2.783 0,-12.365 0.484,-20.669 1.458,-24.909 0.265,-1.147 0.705,-1.81 1.325,-1.988 0.616,-0.176 1.279,-0.308 1.987,-0.397 12.366,-3.18 22.127,-4.771 29.282,-4.771 0.53,0 1.346,0.067 2.452,0.199 1.103,0.133 1.921,0.199 2.451,0.199 4.327,0 6.493,-1.633 6.493,-4.902 0,-2.207 -1.325,-3.93 -3.976,-5.168 -1.944,-0.882 -4.196,-1.325 -6.757,-1.325 -4.418,0 -11.087,0.841 -20.007,2.518 -6.804,1.325 -13.605,2.606 -20.405,3.842 -4.419,0.708 -6.625,3.093 -6.625,7.155 0,0.53 0.086,1.391 0.265,2.584 0.175,1.192 0.265,2.099 0.265,2.716 0,0.089 -0.046,0.795 -0.133,2.12 -0.884,9.894 -1.325,23.32 -1.325,40.28 0,21.554 7.109,32.33 21.333,32.33 3.796,0 9.295,-1.148 16.496,-3.444 7.198,-2.297 12.697,-3.445 16.496,-3.445 0.352,0 0.861,0.065 1.524,0.199 0.662,0.132 1.169,0.197 1.524,0.197 1.325,0 2.385,-0.74 3.18,-2.225 0.616,-1.135 0.927,-2.443 0.927,-3.925 -1.768,-3.054 -5.654,-4.582 -11.66,-4.582 z"
   id="path18"
   inkscape:connector-curvature="0"
   style="fill:none;stroke:#7ab0e0;stroke-width:2.6500001;stroke-miterlimit:10.60000038" />
	<path
   clip-path="url(#SVGID_2_)"
   d="m 733.17,224.902 c -2.209,-1.592 -3.932,-2.389 -5.168,-2.389 -3.888,0 -6.979,3.672 -9.274,11.018 -1.59,5.221 -2.518,10.529 -2.782,15.927 l -1.325,35.973 c 0,0.886 0.109,2.125 0.331,3.717 0.219,1.594 0.331,2.743 0.331,3.451 0,2.478 -0.485,3.716 -1.457,3.716 -2.649,0 -6.671,-8.169 -12.058,-24.512 -4.505,-13.867 -7.287,-23.937 -8.348,-30.211 -0.265,-2.206 -0.529,-4.372 -0.795,-6.492 -0.442,-3.091 -0.928,-5.122 -1.458,-6.095 -1.943,-2.915 -5.167,-4.372 -9.672,-4.372 -1.943,0 -3.888,0.486 -5.83,1.457 -2.385,1.149 -3.577,2.607 -3.577,4.373 0,0.178 0.065,0.443 0.198,0.795 0.132,0.354 0.199,0.619 0.199,0.795 v 16.164 c 0,3.624 -0.443,9.011 -1.325,16.166 -0.884,7.155 -1.325,12.544 -1.325,16.165 0,1.503 -0.046,3.732 -0.133,6.691 -0.089,2.96 -0.132,5.19 -0.132,6.691 0,3.358 0.617,7.068 1.855,11.13 1.59,5.213 3.621,7.818 6.095,7.818 1.766,0 3.532,-0.641 5.3,-1.922 1.766,-1.279 2.65,-2.76 2.65,-4.438 0,-0.795 -0.687,-2.031 -2.055,-3.71 -1.371,-1.677 -2.054,-8.17 -2.054,-19.478 0,-5.122 0.928,-15.192 2.783,-30.21 2.12,6.89 4.194,13.78 6.227,20.67 3.532,10.6 7.023,18.904 10.469,24.91 4.77,8.128 9.583,12.19 14.441,12.19 3.268,0 6.006,-2.565 8.215,-7.697 1.678,-4.069 2.562,-8.05 2.65,-11.942 l 0.397,-38.085 c 0,-5.131 1.279,-11.72 3.843,-19.772 0.176,-0.443 0.75,-1.638 1.723,-3.584 0.795,-1.503 1.192,-2.741 1.192,-3.714 0.002,-0.354 -0.043,-0.751 -0.131,-1.194 m -182.91,1.321 c -1.855,-1.325 -3.577,-1.988 -5.167,-1.988 -2.033,0 -4.108,0.928 -6.229,2.783 -2.121,1.855 -3.18,3.799 -3.18,5.83 0,3.71 -0.066,9.208 -0.198,16.496 -0.133,7.287 -0.199,12.743 -0.199,16.364 0,15.37 0.617,27.427 1.855,36.172 0.971,7.155 3.71,10.778 8.215,10.865 h 1.192 c 4.326,0 6.492,-0.928 6.492,-2.783 0,-0.352 -0.046,-0.616 -0.133,-0.794 -1.943,-3.532 -3.225,-6.315 -3.842,-8.349 -0.708,-2.385 -1.06,-5.519 -1.06,-9.407 0,-14.927 0.927,-32.285 2.781,-52.073 0.353,-3.267 0.706,-5.254 1.061,-5.962 0.795,-1.501 1.192,-2.472 1.192,-2.915 0.002,-1.5 -0.926,-2.914 -2.78,-4.239 m -33.787,-0.663 c -3.181,-1.06 -6.891,-1.59 -11.13,-1.59 -6.009,0 -13.869,0.53 -23.585,1.59 -12.545,1.414 -19.478,3.093 -20.803,5.035 -0.884,0.265 -1.324,1.149 -1.324,2.65 0,3.623 3.063,5.433 9.193,5.433 1.865,0 4.263,-0.22 7.194,-0.663 3.553,-0.53 5.952,-0.838 7.197,-0.927 v 3.842 c 0,3.888 -0.354,8.967 -1.061,15.238 -0.884,8.039 -1.371,13.117 -1.458,15.237 -0.354,4.859 -0.53,11.66 -0.53,20.405 0,7.509 0.398,12.587 1.193,15.238 1.677,5.478 5.343,8.215 10.997,8.215 0.971,0 2.296,-0.444 3.975,-1.325 v -3.578 c -2.385,-3.797 -3.576,-10.818 -3.576,-21.066 0,-15.105 0.838,-28.664 2.517,-40.678 0.706,-4.416 1.236,-7.728 1.59,-9.937 0.176,-1.501 0.331,-2.363 0.464,-2.584 0.132,-0.22 0.861,-0.331 2.187,-0.331 h 9.143 c 1.412,0 3.2,0.376 5.366,1.126 2.163,0.751 3.644,1.126 4.438,1.126 1.412,0 2.583,-0.551 3.512,-1.656 0.927,-1.104 1.391,-2.406 1.391,-3.909 -0.001,-3.092 -2.299,-5.388 -6.89,-6.891 m -69.296,2.12 c 0,-1.59 -0.95,-3.002 -2.85,-4.24 -1.899,-1.236 -3.688,-1.854 -5.366,-1.854 -1.59,0 -2.98,0.752 -4.174,2.253 -1.191,1.503 -1.788,3.047 -1.788,4.637 0,0.619 0.266,1.458 0.795,2.518 1.767,3.623 2.65,8.347 2.65,14.177 0,15.989 -0.663,27.782 -1.988,35.378 -2.915,16.254 -8.79,24.38 -17.622,24.38 -4.594,0 -8.083,-2.472 -10.468,-7.42 -1.944,-3.886 -2.915,-8.348 -2.915,-13.383 v -16.43 c 0,-3.621 0.441,-9.01 1.325,-16.165 0.882,-7.155 1.325,-12.498 1.325,-16.032 0,-1.06 0.441,-2.518 1.325,-4.373 0.882,-1.855 1.325,-3.267 1.325,-4.24 0,-1.855 -1.503,-2.782 -4.505,-2.782 -2.65,0 -5.346,0.575 -8.082,1.722 -3.534,1.414 -5.3,3.226 -5.3,5.433 0,0.708 0.265,1.745 0.795,3.113 0.53,1.371 0.795,2.408 0.795,3.114 0,4.064 -0.265,10.182 -0.795,18.351 -0.53,8.172 -0.795,14.29 -0.795,18.352 0,8.304 0.662,14.929 1.987,19.875 1.855,6.979 5.255,12.5 10.203,16.562 4.505,3.621 9.759,5.433 15.767,5.433 6.712,0 12.366,-2.431 16.96,-7.288 3.71,-3.886 6.625,-10.908 8.745,-21.067 1.766,-8.215 2.65,-15.987 2.65,-23.32 V 227.68 Z m -66.117,75.26 c -1.325,-2.207 -3.226,-3.312 -5.698,-3.312 -2.65,0 -6.449,0.907 -11.394,2.717 -4.949,1.811 -8.746,2.716 -11.395,2.716 -5.92,0 -8.878,-5.211 -8.878,-15.635 0,-5.917 0.573,-14.794 1.722,-26.632 1.147,-11.836 1.723,-20.757 1.723,-26.766 0,-2.825 -0.53,-5.475 -1.59,-7.949 -1.325,-3.18 -3.226,-4.77 -5.698,-4.77 -2.563,0 -4.726,1.06 -6.492,3.18 -0.178,1.325 -0.265,2.517 -0.265,3.577 0,1.06 0.066,2.65 0.199,4.771 0.132,2.12 0.198,3.667 0.198,4.638 0,5.213 -0.397,12.941 -1.192,23.187 -0.795,10.248 -1.193,17.977 -1.193,23.188 0,8.923 1.28,15.635 3.843,20.14 3.356,5.83 9.186,8.745 17.49,8.745 10.6,0 20.67,-1.723 30.21,-5.168 -10e-4,-2.651 -0.531,-4.859 -1.59,-6.627"
   id="path20"
   inkscape:connector-curvature="0"
   style="fill:#87b926" />
	<path
   clip-path="url(#SVGID_2_)"
   stroke-miterlimit="10.6"
   d="m 733.17,224.902 c -2.209,-1.592 -3.932,-2.389 -5.168,-2.389 -3.888,0 -6.979,3.672 -9.274,11.018 -1.59,5.221 -2.518,10.529 -2.782,15.927 l -1.325,35.973 c 0,0.886 0.109,2.125 0.331,3.717 0.219,1.594 0.331,2.743 0.331,3.451 0,2.478 -0.485,3.716 -1.457,3.716 -2.649,0 -6.671,-8.169 -12.058,-24.512 -4.505,-13.867 -7.287,-23.937 -8.348,-30.211 -0.265,-2.206 -0.529,-4.372 -0.795,-6.492 -0.442,-3.091 -0.928,-5.122 -1.458,-6.095 -1.943,-2.915 -5.167,-4.372 -9.672,-4.372 -1.943,0 -3.888,0.486 -5.83,1.457 -2.385,1.149 -3.577,2.607 -3.577,4.373 0,0.178 0.065,0.443 0.198,0.795 0.132,0.354 0.199,0.619 0.199,0.795 v 16.164 c 0,3.624 -0.443,9.011 -1.325,16.166 -0.884,7.155 -1.325,12.544 -1.325,16.165 0,1.503 -0.046,3.732 -0.133,6.691 -0.089,2.96 -0.132,5.19 -0.132,6.691 0,3.358 0.617,7.068 1.855,11.13 1.59,5.213 3.621,7.818 6.095,7.818 1.766,0 3.532,-0.641 5.3,-1.922 1.766,-1.279 2.65,-2.76 2.65,-4.438 0,-0.795 -0.687,-2.031 -2.055,-3.71 -1.371,-1.677 -2.054,-8.17 -2.054,-19.478 0,-5.122 0.928,-15.192 2.783,-30.21 2.12,6.89 4.194,13.78 6.227,20.67 3.532,10.6 7.023,18.904 10.469,24.91 4.77,8.128 9.583,12.19 14.441,12.19 3.268,0 6.006,-2.565 8.215,-7.697 1.678,-4.069 2.562,-8.05 2.65,-11.942 l 0.397,-38.085 c 0,-5.131 1.279,-11.72 3.843,-19.772 0.176,-0.443 0.75,-1.638 1.723,-3.584 0.795,-1.503 1.192,-2.741 1.192,-3.714 0.002,-0.354 -0.043,-0.751 -0.131,-1.194 z m -182.91,1.321 c -1.855,-1.325 -3.577,-1.988 -5.167,-1.988 -2.033,0 -4.108,0.928 -6.229,2.783 -2.121,1.855 -3.18,3.799 -3.18,5.83 0,3.71 -0.066,9.208 -0.198,16.496 -0.133,7.287 -0.199,12.743 -0.199,16.364 0,15.37 0.617,27.427 1.855,36.172 0.971,7.155 3.71,10.778 8.215,10.865 h 1.192 c 4.326,0 6.492,-0.928 6.492,-2.783 0,-0.352 -0.046,-0.616 -0.133,-0.794 -1.943,-3.532 -3.225,-6.315 -3.842,-8.349 -0.708,-2.385 -1.06,-5.519 -1.06,-9.407 0,-14.927 0.927,-32.285 2.781,-52.073 0.353,-3.267 0.706,-5.254 1.061,-5.962 0.795,-1.501 1.192,-2.472 1.192,-2.915 0.002,-1.5 -0.926,-2.914 -2.78,-4.239 z m -33.787,-0.663 c -3.181,-1.06 -6.891,-1.59 -11.13,-1.59 -6.009,0 -13.869,0.53 -23.585,1.59 -12.545,1.414 -19.478,3.093 -20.803,5.035 -0.884,0.265 -1.324,1.149 -1.324,2.65 0,3.623 3.063,5.433 9.193,5.433 1.865,0 4.263,-0.22 7.194,-0.663 3.553,-0.53 5.952,-0.838 7.197,-0.927 v 3.842 c 0,3.888 -0.354,8.967 -1.061,15.238 -0.884,8.039 -1.371,13.117 -1.458,15.237 -0.354,4.859 -0.53,11.66 -0.53,20.405 0,7.509 0.398,12.587 1.193,15.238 1.677,5.478 5.343,8.215 10.997,8.215 0.971,0 2.296,-0.444 3.975,-1.325 v -3.578 c -2.385,-3.797 -3.576,-10.818 -3.576,-21.066 0,-15.105 0.838,-28.664 2.517,-40.678 0.706,-4.416 1.236,-7.728 1.59,-9.937 0.176,-1.501 0.331,-2.363 0.464,-2.584 0.132,-0.22 0.861,-0.331 2.187,-0.331 h 9.143 c 1.412,0 3.2,0.376 5.366,1.126 2.163,0.751 3.644,1.126 4.438,1.126 1.412,0 2.583,-0.551 3.512,-1.656 0.927,-1.104 1.391,-2.406 1.391,-3.909 -0.001,-3.092 -2.299,-5.388 -6.89,-6.891 z m -69.296,2.12 c 0,-1.59 -0.95,-3.002 -2.85,-4.24 -1.899,-1.236 -3.688,-1.854 -5.366,-1.854 -1.59,0 -2.98,0.752 -4.174,2.253 -1.191,1.503 -1.788,3.047 -1.788,4.637 0,0.619 0.266,1.458 0.795,2.518 1.767,3.623 2.65,8.347 2.65,14.177 0,15.989 -0.663,27.782 -1.988,35.378 -2.915,16.254 -8.79,24.38 -17.622,24.38 -4.594,0 -8.083,-2.472 -10.468,-7.42 -1.944,-3.886 -2.915,-8.348 -2.915,-13.383 v -16.43 c 0,-3.621 0.441,-9.01 1.325,-16.165 0.882,-7.155 1.325,-12.498 1.325,-16.032 0,-1.06 0.441,-2.518 1.325,-4.373 0.882,-1.855 1.325,-3.267 1.325,-4.24 0,-1.855 -1.503,-2.782 -4.505,-2.782 -2.65,0 -5.346,0.575 -8.082,1.722 -3.534,1.414 -5.3,3.226 -5.3,5.433 0,0.708 0.265,1.745 0.795,3.113 0.53,1.371 0.795,2.408 0.795,3.114 0,4.064 -0.265,10.182 -0.795,18.351 -0.53,8.172 -0.795,14.29 -0.795,18.352 0,8.304 0.662,14.929 1.987,19.875 1.855,6.979 5.255,12.5 10.203,16.562 4.505,3.621 9.759,5.433 15.767,5.433 6.712,0 12.366,-2.431 16.96,-7.288 3.71,-3.886 6.625,-10.908 8.745,-21.067 1.766,-8.215 2.65,-15.987 2.65,-23.32 V 227.68 Z m -66.117,75.26 c -1.325,-2.207 -3.226,-3.312 -5.698,-3.312 -2.65,0 -6.449,0.907 -11.394,2.717 -4.949,1.811 -8.746,2.716 -11.395,2.716 -5.92,0 -8.878,-5.211 -8.878,-15.635 0,-5.917 0.573,-14.794 1.722,-26.632 1.147,-11.836 1.723,-20.757 1.723,-26.766 0,-2.825 -0.53,-5.475 -1.59,-7.949 -1.325,-3.18 -3.226,-4.77 -5.698,-4.77 -2.563,0 -4.726,1.06 -6.492,3.18 -0.178,1.325 -0.265,2.517 -0.265,3.577 0,1.06 0.066,2.65 0.199,4.771 0.132,2.12 0.198,3.667 0.198,4.638 0,5.213 -0.397,12.941 -1.192,23.187 -0.795,10.248 -1.193,17.977 -1.193,23.188 0,8.923 1.28,15.635 3.843,20.14 3.356,5.83 9.186,8.745 17.49,8.745 10.6,0 20.67,-1.723 30.21,-5.168 -10e-4,-2.651 -0.531,-4.859 -1.59,-6.627 z"
   id="path22"
   inkscape:connector-curvature="0"
   style="fill:none;stroke:#87b926;stroke-width:2.6500001;stroke-miterlimit:10.60000038" />
</g>
</svg>