<?xml version="1.0" encoding="UTF-8"?>
<!-- Generator: Adobe Illustrator 16.0.4, SVG Export Plug-In . SVG Version: 6.00 Build 0)  -->
<!DOCTYPE svg PUBLIC "-//W3C//DTD SVG 1.1//EN" "http://www.w3.org/Graphics/SVG/1.1/DTD/svg11.dtd">
<svg version="1.1" id="Layer_1" xmlns="http://www.w3.org/2000/svg" xmlns:xlink="http://www.w3.org/1999/xlink" x="0px" y="0px" width="841.89px" height="595.276px" viewBox="0 0 841.89 595.276" enable-background="new 0 0 841.89 595.276" xml:space="preserve">
<g>
	<defs>
		<rect id="SVGID_1_" width="841.89" height="595.276"/>
	</defs>
	<clipPath id="SVGID_2_">
		<use xlink:href="#SVGID_1_" overflow="visible"/>
	</clipPath>
	<path clip-path="url(#SVGID_2_)" fill="#87B926" d="M645.633,356.561c0.382-1.05,0.93-1.971,1.646-2.768   c0.715-0.794,1.598-1.431,2.646-1.907c1.049-0.478,2.242-0.716,3.577-0.716c1.241,0,2.385,0.238,3.435,0.716   c1.05,0.477,1.956,1.113,2.72,1.907c0.763,0.797,1.358,1.718,1.789,2.768c0.429,1.049,0.643,2.163,0.643,3.339   c0,1.304-0.214,2.488-0.643,3.554c-0.431,1.065-1.026,1.979-1.789,2.742c-0.764,0.763-1.67,1.353-2.72,1.765   c-1.05,0.414-2.193,0.62-3.435,0.62c-1.335,0-2.528-0.229-3.577-0.69s-1.932-1.089-2.646-1.886   c-0.717-0.794-1.265-1.717-1.646-2.766c-0.382-1.05-0.572-2.162-0.572-3.339C645.061,358.724,645.251,357.61,645.633,356.561    M642.104,378.312c1.336,1.398,2.94,2.496,4.817,3.291c1.876,0.795,3.847,1.192,5.915,1.192c2.48,0,4.499-0.382,6.058-1.145   c1.558-0.763,2.79-1.717,3.696-2.862c0.907-1.145,1.527-2.4,1.861-3.768c0.334-1.368,0.5-2.656,0.5-3.864v-22.133h-3.243v3.864   h-0.096c-0.891-1.432-2.115-2.528-3.672-3.291c-1.56-0.765-3.149-1.146-4.771-1.146c-1.75,0-3.332,0.302-4.747,0.906   s-2.623,1.431-3.625,2.481c-1.001,1.049-1.781,2.273-2.337,3.672c-0.557,1.399-0.835,2.895-0.835,4.483   c0,1.622,0.278,3.133,0.835,4.532c0.556,1.399,1.336,2.599,2.337,3.601c1.002,1.002,2.21,1.789,3.625,2.361   c1.415,0.573,2.997,0.859,4.747,0.859c1.621,0,3.219-0.382,4.793-1.146c1.574-0.763,2.791-1.844,3.649-3.244h0.096v4.198   c0,1.208-0.16,2.345-0.477,3.411c-0.318,1.065-0.819,1.995-1.503,2.79c-0.685,0.795-1.582,1.423-2.695,1.884   s-2.465,0.692-4.055,0.692c-1.717,0-3.347-0.398-4.89-1.193c-1.542-0.795-2.759-1.765-3.648-2.909L642.104,378.312z    M612.959,349.024c0.062,0.763,0.111,1.622,0.143,2.576s0.049,1.733,0.049,2.337v17.411h3.242V359.9   c0-1.494,0.191-2.791,0.573-3.888c0.381-1.098,0.89-2.003,1.526-2.72c0.636-0.715,1.358-1.247,2.17-1.598   c0.811-0.349,1.646-0.524,2.505-0.524c1.176,0,2.153,0.191,2.933,0.572c0.779,0.382,1.399,0.915,1.86,1.599   s0.787,1.503,0.978,2.457c0.191,0.953,0.286,2.019,0.286,3.195v12.354h3.244v-13.69c0-2.767-0.708-4.992-2.123-6.678   s-3.538-2.528-6.368-2.528c-1.59,0-3.1,0.405-4.53,1.216c-1.432,0.812-2.465,1.869-3.102,3.173h-0.095   c0-0.478-0.016-1.08-0.048-1.812c-0.032-0.73-0.079-1.399-0.144-2.004H612.959z M602.083,338.792   c-0.477-0.43-1.002-0.644-1.574-0.644c-0.571,0-1.097,0.214-1.574,0.644c-0.477,0.43-0.716,0.978-0.716,1.646   s0.239,1.217,0.716,1.646c0.478,0.43,1.003,0.645,1.574,0.645c0.572,0,1.098-0.215,1.574-0.645   c0.477-0.429,0.716-0.978,0.716-1.646S602.56,339.222,602.083,338.792 M602.131,349.024h-3.244v22.324h3.244V349.024z    M568.55,349.024c0.064,0.763,0.111,1.622,0.144,2.576c0.031,0.954,0.048,1.733,0.048,2.337v17.411h3.244V359.9   c0-1.494,0.19-2.791,0.571-3.888c0.383-1.098,0.891-2.003,1.527-2.72c0.635-0.715,1.359-1.247,2.17-1.598   c0.812-0.349,1.646-0.524,2.504-0.524c1.176,0,2.154,0.191,2.935,0.572c0.778,0.382,1.398,0.915,1.859,1.599   s0.787,1.503,0.979,2.457c0.19,0.953,0.286,2.019,0.286,3.195v12.354h3.243v-13.69c0-2.767-0.708-4.992-2.122-6.678   c-1.416-1.686-3.538-2.528-6.368-2.528c-1.591,0-3.101,0.405-4.531,1.216c-1.431,0.812-2.465,1.869-3.101,3.173h-0.096   c0-0.478-0.017-1.08-0.048-1.812c-0.032-0.73-0.08-1.399-0.143-2.004H568.55z M549.185,353.937v17.411h3.243v-11.421   c0-1.49,0.184-2.769,0.549-3.83c0.365-1.063,0.843-1.936,1.432-2.617c0.588-0.682,1.279-1.182,2.075-1.499   c0.794-0.318,1.622-0.477,2.479-0.477c0.445,0,0.891,0.032,1.336,0.096s0.764,0.128,0.954,0.19l0.429-3.101   c-0.35-0.095-0.69-0.158-1.024-0.19c-0.334-0.031-0.708-0.048-1.121-0.048c-1.591,0-3.022,0.405-4.293,1.216   c-1.272,0.812-2.228,1.869-2.862,3.173h-0.096c0-0.478-0.017-1.08-0.047-1.812c-0.032-0.73-0.08-1.399-0.144-2.004h-3.101   c0.062,0.763,0.111,1.622,0.143,2.576S549.185,353.333,549.185,353.937 M535.4,360.186v1.67c0,0.986-0.16,1.924-0.478,2.813   c-0.319,0.892-0.78,1.679-1.384,2.361c-0.604,0.685-1.352,1.226-2.242,1.622c-0.89,0.398-1.907,0.596-3.052,0.596   c-0.637,0-1.264-0.07-1.884-0.215c-0.621-0.143-1.186-0.381-1.694-0.715s-0.914-0.771-1.216-1.312   c-0.303-0.54-0.453-1.208-0.453-2.004c0-1.05,0.349-1.892,1.049-2.527c0.699-0.636,1.598-1.121,2.695-1.455   c1.097-0.334,2.32-0.556,3.673-0.668c1.351-0.111,2.695-0.167,4.031-0.167H535.4z M535.4,357.61c-2.036,0-4,0.073-5.892,0.216   c-1.893,0.144-3.569,0.462-5.033,0.957c-1.463,0.495-2.631,1.245-3.506,2.25c-0.875,1.004-1.311,2.368-1.311,4.091   c0,1.245,0.246,2.299,0.739,3.159c0.492,0.862,1.112,1.564,1.859,2.106c0.747,0.543,1.574,0.934,2.481,1.173   c0.905,0.238,1.789,0.357,2.646,0.357c1.813,0,3.363-0.325,4.651-0.978c1.288-0.651,2.439-1.724,3.458-3.219h0.096   c0,0.604,0.031,1.224,0.095,1.859c0.063,0.637,0.144,1.226,0.238,1.766h2.91c-0.127-0.637-0.223-1.415-0.286-2.337   s-0.095-1.813-0.095-2.672v-9.778c0-1.367-0.223-2.561-0.668-3.578c-0.446-1.017-1.066-1.86-1.861-2.528s-1.717-1.168-2.766-1.502   c-1.05-0.334-2.18-0.501-3.387-0.501c-1.908,0-3.618,0.302-5.129,0.906c-1.51,0.604-2.727,1.368-3.648,2.29l1.812,2.146   c0.794-0.794,1.766-1.431,2.91-1.907c1.145-0.478,2.385-0.716,3.721-0.716c1.939,0,3.418,0.475,4.436,1.421   c1.018,0.947,1.527,2.384,1.527,4.309V357.61z M511.574,355.225c-0.461-1.335-1.137-2.504-2.027-3.506   c-0.891-1.001-2.004-1.796-3.339-2.386c-1.336-0.588-2.879-0.882-4.627-0.882c-1.591,0-3.069,0.294-4.437,0.882   c-1.367,0.59-2.56,1.407-3.577,2.457c-1.019,1.05-1.812,2.289-2.386,3.721c-0.571,1.431-0.857,2.989-0.857,4.675   s0.293,3.244,0.882,4.675c0.588,1.431,1.391,2.671,2.409,3.72c1.017,1.051,2.233,1.869,3.648,2.457   c1.414,0.588,2.949,0.882,4.604,0.882c1.844,0,3.568-0.365,5.175-1.097c1.606-0.73,3.077-1.938,4.413-3.625l-2.433-1.908   c-0.638,1.019-1.567,1.916-2.791,2.695c-1.225,0.78-2.68,1.169-4.364,1.169c-1.146,0-2.211-0.215-3.196-0.644   c-0.986-0.431-1.845-1.01-2.576-1.741s-1.304-1.59-1.717-2.576c-0.414-0.985-0.636-2.035-0.668-3.148h18.508   c0.031-0.286,0.048-0.556,0.048-0.811v-0.716C512.266,357.992,512.034,356.561,511.574,355.225 M493.758,358.469   c0.063-0.954,0.302-1.868,0.715-2.743c0.413-0.874,0.971-1.653,1.67-2.337c0.699-0.685,1.511-1.225,2.434-1.622   c0.922-0.397,1.923-0.597,3.005-0.597c2.321,0,4.109,0.691,5.366,2.075c1.256,1.383,1.932,3.124,2.026,5.224H493.758z    M480.879,335.287h-3.244v36.062h3.244V335.287z"/>
	<path clip-path="url(#SVGID_2_)" fill="#7AB0E0" d="M433.084,356.561c0.382-1.05,0.93-1.972,1.646-2.767   c0.715-0.795,1.598-1.432,2.646-1.908s2.242-0.716,3.578-0.716c1.24,0,2.385,0.239,3.434,0.716s1.956,1.113,2.72,1.908   c0.763,0.795,1.358,1.717,1.789,2.767c0.429,1.049,0.644,2.162,0.644,3.339c0,1.305-0.215,2.488-0.644,3.554   c-0.431,1.065-1.026,1.979-1.789,2.742c-0.764,0.764-1.671,1.353-2.72,1.766c-1.049,0.414-2.193,0.62-3.434,0.62   c-1.336,0-2.529-0.23-3.578-0.692c-1.049-0.46-1.932-1.089-2.646-1.884c-0.717-0.794-1.265-1.717-1.646-2.767   s-0.572-2.162-0.572-3.339S432.702,357.61,433.084,356.561 M429.554,378.312c1.336,1.399,2.941,2.496,4.818,3.291   c1.876,0.795,3.847,1.193,5.915,1.193c2.479,0,4.499-0.382,6.058-1.146c1.558-0.763,2.79-1.717,3.696-2.861   c0.907-1.146,1.527-2.402,1.861-3.77s0.501-2.655,0.501-3.863v-22.133h-3.244v3.864h-0.095c-0.892-1.431-2.116-2.528-3.674-3.292   c-1.559-0.763-3.148-1.144-4.77-1.144c-1.75,0-3.332,0.302-4.746,0.905c-1.416,0.604-2.624,1.432-3.626,2.48   c-1.001,1.05-1.781,2.273-2.337,3.673c-0.557,1.4-0.835,2.894-0.835,4.484c0,1.622,0.278,3.133,0.835,4.531   c0.556,1.399,1.336,2.6,2.337,3.602c1.002,1.002,2.21,1.789,3.626,2.36c1.414,0.572,2.996,0.859,4.746,0.859   c1.621,0,3.219-0.382,4.794-1.145c1.574-0.764,2.79-1.845,3.649-3.244h0.095v4.197c0,1.208-0.159,2.346-0.478,3.41   c-0.317,1.065-0.818,1.996-1.503,2.791c-0.684,0.794-1.582,1.423-2.694,1.885c-1.113,0.461-2.465,0.691-4.055,0.691   c-1.717,0-3.347-0.397-4.889-1.193c-1.543-0.795-2.76-1.765-3.649-2.909L429.554,378.312z M400.41,349.024   c0.063,0.764,0.111,1.622,0.143,2.576c0.031,0.954,0.048,1.733,0.048,2.337v17.411h3.243V359.9c0-1.495,0.191-2.791,0.573-3.888   c0.381-1.097,0.89-2.003,1.526-2.719c0.636-0.715,1.36-1.248,2.17-1.599c0.811-0.349,1.646-0.524,2.505-0.524   c1.176,0,2.154,0.19,2.933,0.573c0.779,0.381,1.399,0.913,1.861,1.598c0.46,0.684,0.787,1.502,0.977,2.456   c0.191,0.954,0.287,2.02,0.287,3.196v12.354h3.243v-13.69c0-2.767-0.708-4.991-2.122-6.678c-1.416-1.685-3.538-2.527-6.368-2.527   c-1.591,0-3.101,0.404-4.532,1.216c-1.431,0.811-2.465,1.868-3.1,3.172h-0.096c0-0.478-0.016-1.081-0.047-1.813   c-0.033-0.73-0.08-1.398-0.144-2.003H400.41z M389.534,338.792c-0.477-0.43-1.001-0.645-1.574-0.645   c-0.572,0-1.097,0.215-1.574,0.645c-0.477,0.43-0.715,0.978-0.715,1.646s0.238,1.216,0.715,1.646   c0.477,0.429,1.002,0.644,1.574,0.644c0.573,0,1.097-0.215,1.574-0.644c0.477-0.431,0.716-0.979,0.716-1.646   S390.011,339.222,389.534,338.792 M389.582,349.024h-3.244v22.324h3.244V349.024z M344.983,352.84h-0.096   c0-0.478-0.016-1.081-0.047-1.813c-0.032-0.73-0.08-1.398-0.143-2.003h-3.101c0.063,0.764,0.111,1.622,0.143,2.576   c0.031,0.954,0.048,1.733,0.048,2.337v17.411h3.243V359.9c0-1.495,0.191-2.791,0.573-3.888c0.381-1.097,0.882-2.003,1.502-2.719   c0.62-0.715,1.32-1.248,2.099-1.599c0.779-0.349,1.55-0.524,2.314-0.524c1.08,0,1.971,0.167,2.671,0.501   c0.699,0.334,1.248,0.811,1.646,1.431c0.397,0.62,0.675,1.376,0.834,2.267s0.239,1.877,0.239,2.956v13.023h3.243V359.47   c0-1.049,0.111-2.066,0.334-3.053c0.222-0.985,0.58-1.867,1.074-2.647c0.492-0.779,1.144-1.407,1.955-1.884   s1.805-0.716,2.981-0.716c2.099,0,3.585,0.716,4.46,2.146c0.875,1.432,1.312,3.323,1.312,5.677v12.354h3.244v-13.69   c0-2.767-0.708-4.991-2.123-6.678c-1.415-1.685-3.538-2.527-6.368-2.527c-1.812,0-3.379,0.404-4.698,1.216   c-1.32,0.811-2.361,1.979-3.125,3.506c-0.381-0.954-0.834-1.733-1.359-2.337c-0.525-0.604-1.097-1.089-1.717-1.455   c-0.62-0.365-1.257-0.612-1.908-0.74c-0.652-0.126-1.281-0.189-1.884-0.189c-1.622,0-3.093,0.404-4.413,1.216   C346.596,350.479,345.618,351.537,344.983,352.84 M322.231,353.937v17.411h3.243v-11.421c0-1.49,0.183-2.768,0.549-3.831   c0.365-1.063,0.842-1.935,1.431-2.617c0.588-0.681,1.279-1.181,2.075-1.498c0.794-0.317,1.621-0.477,2.48-0.477   c0.445,0,0.89,0.032,1.336,0.096c0.445,0.064,0.763,0.127,0.954,0.191l0.429-3.102c-0.35-0.095-0.692-0.159-1.026-0.19   c-0.333-0.031-0.708-0.047-1.121-0.047c-1.59,0-3.021,0.404-4.293,1.216c-1.272,0.811-2.226,1.868-2.862,3.172h-0.095   c0-0.478-0.016-1.081-0.048-1.813c-0.032-0.73-0.079-1.398-0.143-2.003h-3.1c0.063,0.764,0.111,1.622,0.143,2.576   C322.214,352.554,322.231,353.333,322.231,353.937 M308.851,363.692c-0.398,1.098-0.962,2.052-1.693,2.862   c-0.732,0.811-1.622,1.447-2.671,1.908c-1.05,0.461-2.227,0.69-3.53,0.69c-1.305,0-2.473-0.229-3.506-0.69   c-1.034-0.461-1.916-1.098-2.648-1.908c-0.731-0.811-1.296-1.765-1.693-2.862c-0.398-1.097-0.596-2.266-0.596-3.506   s0.198-2.409,0.596-3.506c0.397-1.097,0.962-2.051,1.693-2.862c0.732-0.811,1.614-1.455,2.648-1.932   c1.033-0.477,2.201-0.716,3.506-0.716c1.303,0,2.48,0.239,3.53,0.716c1.049,0.477,1.939,1.121,2.671,1.932   c0.731,0.812,1.295,1.766,1.693,2.862c0.397,1.097,0.596,2.266,0.596,3.506S309.248,362.595,308.851,363.692 M311.999,355.511   c-0.589-1.431-1.407-2.671-2.456-3.72c-1.05-1.051-2.306-1.868-3.769-2.457c-1.463-0.588-3.069-0.882-4.817-0.882   c-1.717,0-3.308,0.294-4.77,0.882c-1.463,0.589-2.719,1.406-3.769,2.457c-1.049,1.049-1.868,2.289-2.456,3.72   c-0.589,1.431-0.883,2.99-0.883,4.675c0,1.687,0.294,3.243,0.883,4.674c0.588,1.432,1.407,2.672,2.456,3.722   c1.05,1.049,2.306,1.867,3.769,2.457c1.462,0.588,3.053,0.882,4.77,0.882c1.748,0,3.354-0.294,4.817-0.882   c1.463-0.59,2.719-1.408,3.769-2.457c1.049-1.05,1.867-2.29,2.456-3.722c0.588-1.431,0.883-2.987,0.883-4.674   C312.882,358.501,312.587,356.942,311.999,355.511 M283.689,349.024h-5.247V343.3c0-0.795,0.056-1.542,0.167-2.242   c0.111-0.699,0.318-1.312,0.62-1.836c0.302-0.525,0.732-0.931,1.288-1.217s1.264-0.429,2.123-0.429   c0.445,0,0.842,0.031,1.193,0.095c0.349,0.063,0.699,0.143,1.049,0.239l0.572-2.862c-0.413-0.127-0.858-0.215-1.335-0.262   c-0.477-0.049-0.923-0.072-1.336-0.072c-2.576,0-4.484,0.731-5.724,2.194c-1.24,1.463-1.86,3.467-1.86,6.01v6.105h-4.675v2.72   h4.675v19.604h3.243v-19.604h5.247V349.024z M265.039,352.458c-0.731-1.271-1.829-2.257-3.291-2.957   c-1.463-0.699-2.974-1.049-4.531-1.049c-1.018,0-2.004,0.127-2.958,0.381c-0.954,0.255-1.805,0.644-2.552,1.169   c-0.747,0.524-1.343,1.191-1.788,2.003c-0.446,0.811-0.668,1.789-0.668,2.934c0,1.049,0.206,1.924,0.62,2.623   c0.413,0.7,0.937,1.281,1.574,1.741c0.636,0.462,1.327,0.811,2.075,1.05c0.747,0.238,1.455,0.438,2.123,0.596   c2.13,0.51,3.76,1.059,4.889,1.646c1.128,0.588,1.693,1.471,1.693,2.647c0,0.731-0.143,1.344-0.429,1.836   c-0.286,0.493-0.668,0.898-1.145,1.217c-0.477,0.317-1.034,0.541-1.669,0.668c-0.637,0.127-1.305,0.189-2.004,0.189   c-1.335,0-2.56-0.333-3.673-1.001c-1.113-0.668-1.955-1.495-2.528-2.48l-2.576,1.908c1.018,1.494,2.321,2.592,3.912,3.292   c1.589,0.698,3.227,1.049,4.913,1.049c1.017,0,2.027-0.119,3.029-0.358c1.001-0.238,1.9-0.636,2.695-1.191   c0.794-0.557,1.438-1.272,1.932-2.147c0.492-0.874,0.739-1.947,0.739-3.22c0-1.748-0.628-3.141-1.884-4.173   c-1.257-1.033-3.204-1.82-5.843-2.361c-1.845-0.382-3.196-0.851-4.055-1.408c-0.858-0.556-1.288-1.358-1.288-2.408   c0-0.604,0.135-1.129,0.406-1.573c0.27-0.445,0.627-0.812,1.073-1.099c0.445-0.286,0.954-0.492,1.526-0.62   c0.573-0.126,1.145-0.19,1.718-0.19c1.24,0,2.344,0.295,3.315,0.883c0.969,0.589,1.693,1.344,2.17,2.266L265.039,352.458z    M220.393,349.024c0.063,0.764,0.111,1.622,0.143,2.576c0.031,0.954,0.047,1.733,0.047,2.337v17.411h3.244V359.9   c0-1.495,0.191-2.791,0.572-3.888c0.382-1.097,0.89-2.003,1.527-2.719c0.636-0.715,1.359-1.248,2.17-1.599   c0.811-0.349,1.646-0.524,2.504-0.524c1.176,0,2.154,0.19,2.934,0.573c0.779,0.381,1.399,0.913,1.86,1.598   c0.461,0.684,0.787,1.502,0.978,2.456s0.286,2.02,0.286,3.196v12.354h3.244v-13.69c0-2.767-0.708-4.991-2.123-6.678   c-1.415-1.685-3.538-2.527-6.368-2.527c-1.59,0-3.1,0.404-4.531,1.216c-1.431,0.811-2.465,1.868-3.101,3.172h-0.095   c0-0.478-0.017-1.081-0.048-1.813c-0.032-0.73-0.08-1.398-0.143-2.003H220.393z M206.798,360.186v1.669   c0,0.986-0.159,1.925-0.477,2.815c-0.318,0.89-0.779,1.677-1.383,2.36c-0.605,0.685-1.352,1.225-2.242,1.622   c-0.891,0.398-1.908,0.597-3.053,0.597c-0.636,0-1.264-0.072-1.884-0.215c-0.62-0.144-1.185-0.382-1.693-0.716   c-0.509-0.334-0.915-0.771-1.217-1.312c-0.302-0.54-0.453-1.208-0.453-2.004c0-1.049,0.35-1.892,1.05-2.528   c0.699-0.635,1.598-1.121,2.695-1.454c1.097-0.334,2.321-0.556,3.673-0.668c1.351-0.11,2.695-0.167,4.03-0.167H206.798z    M206.798,357.61c-2.035,0-3.999,0.072-5.891,0.215c-1.892,0.145-3.57,0.464-5.032,0.958c-1.463,0.495-2.632,1.245-3.506,2.249   c-0.875,1.006-1.312,2.369-1.312,4.093c0,1.245,0.246,2.297,0.74,3.158c0.492,0.861,1.112,1.564,1.86,2.106   c0.747,0.543,1.574,0.933,2.48,1.173c0.907,0.238,1.789,0.358,2.648,0.358c1.812,0,3.362-0.326,4.65-0.979   c1.288-0.65,2.441-1.725,3.459-3.22h0.095c0,0.605,0.031,1.225,0.095,1.861c0.064,0.636,0.144,1.224,0.239,1.765h2.91   c-0.128-0.636-0.223-1.415-0.287-2.338c-0.064-0.922-0.095-1.812-0.095-2.671v-9.778c0-1.367-0.223-2.56-0.668-3.578   c-0.445-1.017-1.066-1.859-1.86-2.527c-0.795-0.668-1.717-1.169-2.767-1.503c-1.049-0.333-2.178-0.5-3.386-0.5   c-1.908,0-3.618,0.302-5.128,0.905c-1.511,0.604-2.727,1.368-3.649,2.29l1.812,2.146c0.795-0.795,1.765-1.432,2.91-1.908   c1.145-0.477,2.385-0.716,3.721-0.716c1.939,0,3.418,0.475,4.436,1.421c1.017,0.947,1.526,2.384,1.526,4.309V357.61z    M173.743,353.937v17.411h3.243v-11.421c0-1.49,0.183-2.768,0.549-3.831c0.365-1.063,0.842-1.935,1.431-2.617   c0.588-0.681,1.279-1.181,2.075-1.498c0.794-0.317,1.621-0.477,2.48-0.477c0.445,0,0.89,0.032,1.336,0.096   c0.445,0.064,0.763,0.127,0.954,0.191l0.429-3.102c-0.35-0.095-0.692-0.159-1.026-0.19s-0.708-0.047-1.121-0.047   c-1.59,0-3.021,0.404-4.293,1.216c-1.272,0.811-2.226,1.868-2.862,3.172h-0.095c0-0.478-0.016-1.081-0.048-1.813   c-0.032-0.73-0.079-1.398-0.143-2.003h-3.1c0.063,0.764,0.111,1.622,0.143,2.576C173.726,352.554,173.743,353.333,173.743,353.937    M166.302,349.024h-6.296v-6.296h-3.244v6.296h-4.627v2.72h4.627v13.928c0,1.24,0.183,2.242,0.549,3.005   c0.365,0.764,0.834,1.368,1.407,1.812c0.572,0.446,1.192,0.748,1.86,0.906c0.668,0.159,1.304,0.239,1.908,0.239   c0.731,0,1.407-0.056,2.027-0.167c0.62-0.112,1.217-0.278,1.789-0.501l-0.143-2.814c-0.446,0.224-0.915,0.398-1.407,0.524   c-0.494,0.128-0.962,0.191-1.407,0.191c-0.477,0-0.923-0.056-1.336-0.168c-0.414-0.11-0.771-0.316-1.073-0.619   c-0.303-0.303-0.533-0.724-0.692-1.265c-0.159-0.54-0.238-1.224-0.238-2.051v-13.021h6.296V349.024z"/>
	<path clip-path="url(#SVGID_2_)" fill="#FDC41F" d="M594.614,241.633l2.303,0.576c-0.335-0.356-0.716-0.634-1.164-0.722   C595.37,241.504,594.975,241.578,594.614,241.633 M631.023,269.378c-0.237,0.56-0.464,0.766-0.783,1.242   c-0.279,0.417-0.393,1.245-0.963,1.385c0.015,0.627-0.213,0.476-0.476,0.907c-0.262,0.428-0.256,0.928-0.46,1.369   c-0.422,0.913-1.174,1.641-1.699,2.477c-0.25,0.399-0.298,0.658-0.649,1.009c-0.377,0.374-0.775,0.697-1.167,1.055   c-0.685,0.623-1.479,1.404-1.961,2.11c-0.421,0.614-1.132,1.087-1.252,1.831c-0.021,0.136,0.007,0.408-0.033,0.524   c-0.061,0.175-0.262,0.462-0.309,0.618c-0.105,0.357-0.209,1.115-0.094,1.496c0.055,0.181,0.281,0.337,0.308,0.418   c0.074,0.229,0.067,0.417,0.126,0.676c0.115,0.516,0.122,0.982,0.193,1.502c0.129,0.935,0.12,1.809,0,2.781   c-0.104,0.837,0.097,1.854-0.22,2.632c-0.131,0.326-0.406,0.859-0.629,1.146c-0.358,0.459-0.773,0.432-1.262,0.625   c-0.627,0.248-1.151,0.631-1.731,1.006c-0.792,0.511-1.007,1.083-0.997,2.053c0.008,0.8,0.076,1.593-0.192,2.301   c-0.354,0.932-0.879,1.449-1.523,2.169c-0.439,0.489-0.537,0.48-0.587,1.146c-0.041,0.555-0.119,0.789-0.43,1.258   c-0.406,0.609-0.825,1.221-1.247,1.821c-0.864,1.228-1.715,2.55-3.306,2.866c-0.781,0.156-1.567,0.389-2.307,0.722   c-1.028,0.462-1.647,0.575-2.825,0.58c-0.615,0.002-1.049,0.182-1.355-0.38c-0.115-0.212-0.17-0.713-0.236-0.948   c-0.229-0.813-0.297-1.646-0.571-2.364c-0.244-0.638-0.497-1.433-0.762-2.067c-0.162-0.389-0.295-0.493-0.387-0.945   c-0.134-0.657-0.054-0.939-0.388-1.536c-0.332-0.594-0.529-1.336-0.849-1.945c-0.101-0.193-0.385-0.338-0.501-0.557   c-0.085-0.16-0.13-0.403-0.188-0.58c-0.22-0.666-0.52-1.44-0.758-2.097c-0.275-0.764-0.678-1.476-0.775-2.307   c-0.115-0.978,0.291-1.815,0.397-2.679c0.06-0.475-0.07-0.9,0.075-1.364c0.062-0.194,0.248-0.328,0.308-0.565   c0.038-0.151-0.006-0.418-0.009-0.576c-0.009-0.454-0.035-0.745,0.241-1.106c0.288-0.378,0.562-0.257,0.727-0.803   c0.111-0.367-0.012-0.953-0.009-1.347c0.003-0.494-0.136-0.735-0.244-1.103c-0.213-0.722-0.026-1.641-0.327-2.36   c-0.376-0.904-1.22-1.311-1.496-2.296c-0.164-0.585-0.185-0.521-0.671-0.912c-0.283-0.23-0.81-0.679-0.926-1.003   c-0.137-0.382,0.02-1.109,0.02-1.534c0-0.291-0.08-0.698-0.009-0.974c0.082-0.318,0.313-0.45,0.412-0.758   c0.08-0.251,0.054-1.083-0.011-1.342c-0.08-0.324-0.317-0.456-0.413-0.763c-0.084-0.276,0.055-0.647-0.009-0.944   c-0.901-0.12-1.759,0.135-2.567,0.027c-0.821-0.11-0.58-0.164-0.996-0.83c-0.308-0.492-0.646-0.855-1.193-0.947   c-0.915-0.155-1.764,0.059-2.509,0.429c-0.205,0.103-0.352,0.248-0.57,0.34c-0.18,0.076-0.405,0.105-0.58,0.19   c-0.498,0.241-0.524,0.373-1.147,0.387c-0.941,0.024-1.949,0.089-2.887,0c-0.404-0.039-0.744-0.145-1.141-0.196   c-0.503-0.064-1.043,0.088-1.544,0.009c-1.71-0.269-3.018-1.838-4.227-2.978c-0.545-0.513-1.084-1.423-1.38-2.163   c-0.107-0.269-0.303-0.632-0.342-0.949c-0.053-0.436,0.14-0.986,0.03-1.405c-0.061-0.23-0.323-0.143-0.419-0.359   c-0.024-0.055-0.125-0.576-0.133-0.643c-0.041-0.316-0.149-0.686-0.193-0.94c-0.064-0.37-0.255-0.777-0.248-1.124   c0.006-0.321,0.209-0.727,0.206-1.145c-0.012-1.819-0.729-3.395-0.048-5.184c0.554-1.459,1.266-3.016,2.406-4.183   c0.604-0.617,1.442-0.819,2.203-1.173c1.087-0.507,1.065-1.42,1.197-2.51c0.059-0.48-0.155-1.096-0.023-1.55   c0.01-0.032,0.383-0.533,0.402-0.56c0.109-0.143,0.194-0.28,0.332-0.426c0.291-0.307,0.82-0.51,1.203-0.683   c0.451-0.204,0.983-0.465,1.499-0.454c-0.001-0.526,0.991-0.665,1.38-0.776c0.87-0.248,1.819-0.15,2.745-0.15   c0.771,0,1.309,0.044,2.007-0.288c0.587-0.279,1.12-0.566,1.779-0.723c1.104-0.264,2.157-0.193,3.295-0.322   c0.077-0.009,0.159-0.022,0.241-0.035l-0.668-0.167c0.552,0,1.173-0.08,1.721-0.004c0.03,0.005,0.056,0.019,0.086,0.025   c0.591-0.029,1.14,0.091,1.431,0.704c-0.056,0.014-0.111,0.028-0.169,0.043l-0.098-0.025c0.05,0.053,0.102,0.103,0.15,0.158   c0.344,0.401,0.446,0.98,0.712,1.406c0.298,0.48,1.058,1.15,1.532,1.534c0.53,0.43,0.962,0.443,1.535,0.702   c0.368,0.165,0.607,0.486,0.975,0.656c0.27,0.126,0.643,0.153,0.954,0.322c0.419,0.229,0.812,0.545,1.348,0.429   c0.865-0.187,0.653-0.757,0.777-1.513c0.81-0.136,1.268,0.032,1.899,0.402c0.623,0.365,1.405,0.79,2.147,0.921   c1.463,0.258,2.923-0.165,4.374,0.24c0.806,0.225,1.479,0.186,2.12,0.757c0.574,0.514,0.239,1.019,0.375,1.684   c0.099,0.484,0.217,0.363,0.402,0.756c-0.008,0.135-0.02,0.269-0.036,0.402c0.107,0.205,0.236,0.352,0.357,0.569   c0.274,0.49,0.609,1.851,1.16,1.955c0.071,0.868,0.43,1.32,0.801,2.064c0.369,0.739,0.63,1.524,0.912,2.297   c0.699,1.909,1.613,3.951,2.774,5.774c0.178,0.277,0.525,0.513,0.683,0.8c0.212,0.386,0.263,0.808,0.561,1.166   c0.481,0.577,1.537,1.245,2.21,1.631c0.801,0.459,1.304,0.006,2.06-0.191c1.017-0.265,2.805,0.178,3.614-0.515   C631.516,267.565,631.379,268.538,631.023,269.378 M649.162,274.469c0-26.764-21.696-48.459-48.459-48.459   c-26.764,0-48.459,21.695-48.459,48.459c0,26.763,21.695,48.459,48.459,48.459C627.466,322.928,649.162,301.232,649.162,274.469"/>
	<path clip-path="url(#SVGID_2_)" fill="#7AB0E0" d="M307.799,233.226c0-1.59-0.95-3.002-2.848-4.241   c-1.901-1.235-3.69-1.854-5.367-1.854c-1.59,0-2.981,0.751-4.173,2.252c-1.193,1.503-1.789,3.048-1.789,4.638   c0,0.619,0.265,1.457,0.795,2.517c1.766,3.623,2.65,8.348,2.65,14.178c0,15.989-0.663,27.781-1.988,35.377   c-2.915,16.254-8.79,24.38-17.622,24.38c-4.594,0-8.083-2.473-10.468-7.42c-1.944-3.886-2.915-8.348-2.915-13.383v-16.429   c0-3.621,0.441-9.011,1.325-16.165c0.882-7.156,1.325-12.499,1.325-16.033c0-1.06,0.441-2.517,1.325-4.373   c0.882-1.854,1.325-3.266,1.325-4.239c0-1.855-1.503-2.783-4.505-2.783c-2.65,0-5.345,0.576-8.082,1.723   c-3.534,1.414-5.3,3.225-5.3,5.432c0,0.708,0.265,1.745,0.795,3.114c0.53,1.37,0.795,2.408,0.795,3.114   c0,4.064-0.265,10.181-0.795,18.351c-0.53,8.171-0.795,14.289-0.795,18.351c0,8.304,0.662,14.929,1.987,19.875   c1.855,6.979,5.255,12.501,10.203,16.562c4.505,3.62,9.759,5.433,15.767,5.433c6.712,0,12.366-2.431,16.96-7.287   c3.71-3.886,6.625-10.909,8.745-21.068c1.766-8.215,2.65-15.987,2.65-23.32V233.226z M222.92,282.996   c-1.59,6.991-4.505,13.229-8.745,18.715c-5.124,6.46-10.822,9.689-17.093,9.689c-6.979,0-10.467-4.16-10.467-12.478v-28.537   c0-5.487,0.683-10.507,2.054-15.064c1.368-4.557,3.908-8.782,7.618-12.677c4.24-4.424,8.524-6.637,12.853-6.637   c10.6,0,15.9,9.027,15.9,27.078C225.04,270.077,224.332,276.715,222.92,282.996 M231.267,237.747   c-5.389-7.606-13.117-11.411-23.187-11.411c-8.304,0-14.708,3.312-19.213,9.937c0.441-2.12-0.198-3.975-1.921-5.565   c-1.722-1.59-3.689-2.385-5.896-2.385c-1.59,0-2.961,0.489-4.108,1.464c-1.149,0.977-1.722,2.263-1.722,3.859   c0,0.267,0.043,0.623,0.132,1.066c0.087,0.443,0.133,0.754,0.133,0.93c0,7.097-0.199,17.742-0.596,31.936   c-0.398,14.194-0.597,24.84-0.597,31.937c0,8.252,0.882,14.86,2.65,19.827c1.412,1.152,2.65,1.73,3.71,1.73   c1.766,0,3.578-0.973,5.433-2.915c3.356,1.942,7.331,2.915,11.925,2.915c12.807,0,23.009-6.633,30.607-19.901   c6.36-11.146,9.54-23.665,9.54-37.551C238.157,253.094,235.859,244.471,231.267,237.747 M149.649,304.113   c-3.799,0-8.923,1.018-15.37,3.047c-6.449,2.034-11.352,3.048-14.707,3.048c-3.975,0-6.406-2.561-7.288-7.685   c-0.265-1.325-0.397-5.387-0.397-12.19c0-0.971,0.086-2.253,0.265-3.842c0.175-0.971,0.463-1.501,0.861-1.59   c0.397-0.087,0.861-0.176,1.391-0.265c3.71-0.706,7.374-1.458,10.998-2.253c4.326-0.795,8.036-1.192,11.13-1.192   c1.235,0,2.206,0.221,2.915,0.662c1.5-0.176,2.914-0.352,4.24-0.53c1.325-0.176,1.987-1.368,1.987-3.577   c0-0.617-0.443-2.34-1.325-5.168c-3.358-1.59-6.317-2.385-8.877-2.385c-2.299,0-5.611,0.576-9.938,1.722   c-4.329,1.15-7.642,1.723-9.937,1.723c-1.68,0-2.518-0.927-2.518-2.783c0-12.365,0.484-20.669,1.458-24.909   c0.265-1.147,0.705-1.81,1.325-1.988c0.616-0.176,1.279-0.308,1.987-0.397c12.366-3.18,22.127-4.771,29.282-4.771   c0.53,0,1.346,0.067,2.452,0.199c1.103,0.133,1.921,0.199,2.451,0.199c4.327,0,6.493-1.633,6.493-4.902   c0-2.207-1.325-3.93-3.976-5.168c-1.944-0.882-4.196-1.325-6.757-1.325c-4.418,0-11.087,0.841-20.007,2.518   c-6.804,1.325-13.605,2.606-20.405,3.842c-4.419,0.708-6.625,3.093-6.625,7.155c0,0.53,0.086,1.391,0.265,2.584   c0.175,1.192,0.265,2.099,0.265,2.716c0,0.089-0.046,0.795-0.133,2.12c-0.884,9.894-1.325,23.32-1.325,40.28   c0,21.554,7.109,32.331,21.333,32.331c3.796,0,9.295-1.149,16.496-3.445c7.198-2.296,12.697-3.445,16.496-3.445   c0.352,0,0.861,0.066,1.524,0.199c0.662,0.132,1.169,0.198,1.524,0.198c1.325,0,2.385-0.741,3.18-2.226   c0.616-1.135,0.927-2.442,0.927-3.925C159.541,305.641,155.655,304.113,149.649,304.113"/>
	<path clip-path="url(#SVGID_2_)" fill="none" stroke="#7AB0E0" stroke-width="2.65" stroke-miterlimit="10.6" d="M307.799,233.226   c0-1.59-0.95-3.002-2.848-4.241c-1.901-1.235-3.69-1.854-5.367-1.854c-1.59,0-2.981,0.751-4.173,2.252   c-1.193,1.503-1.789,3.048-1.789,4.638c0,0.619,0.265,1.457,0.795,2.517c1.766,3.623,2.65,8.348,2.65,14.178   c0,15.989-0.663,27.781-1.988,35.377c-2.915,16.254-8.79,24.38-17.622,24.38c-4.594,0-8.083-2.473-10.468-7.42   c-1.944-3.886-2.915-8.348-2.915-13.383v-16.429c0-3.621,0.441-9.011,1.325-16.165c0.882-7.156,1.325-12.499,1.325-16.033   c0-1.06,0.441-2.517,1.325-4.373c0.882-1.854,1.325-3.266,1.325-4.239c0-1.855-1.503-2.783-4.505-2.783   c-2.65,0-5.345,0.576-8.082,1.723c-3.534,1.414-5.3,3.225-5.3,5.432c0,0.708,0.265,1.745,0.795,3.114   c0.53,1.37,0.795,2.408,0.795,3.114c0,4.064-0.265,10.181-0.795,18.351c-0.53,8.171-0.795,14.289-0.795,18.351   c0,8.304,0.662,14.929,1.987,19.875c1.855,6.979,5.255,12.501,10.203,16.562c4.505,3.62,9.759,5.433,15.767,5.433   c6.712,0,12.366-2.431,16.96-7.287c3.71-3.886,6.625-10.909,8.745-21.068c1.766-8.215,2.65-15.987,2.65-23.32V233.226z    M222.92,282.996c-1.59,6.991-4.505,13.229-8.745,18.715c-5.124,6.46-10.822,9.689-17.093,9.689   c-6.979,0-10.467-4.16-10.467-12.478v-28.537c0-5.487,0.683-10.507,2.054-15.064c1.368-4.557,3.908-8.782,7.618-12.677   c4.24-4.424,8.524-6.637,12.853-6.637c10.6,0,15.9,9.027,15.9,27.078C225.04,270.077,224.332,276.715,222.92,282.996z    M231.267,237.747c-5.389-7.606-13.117-11.411-23.187-11.411c-8.304,0-14.708,3.312-19.213,9.937   c0.441-2.12-0.198-3.975-1.921-5.565c-1.722-1.59-3.689-2.385-5.896-2.385c-1.59,0-2.961,0.489-4.108,1.464   c-1.149,0.977-1.722,2.263-1.722,3.859c0,0.267,0.043,0.623,0.132,1.066c0.087,0.443,0.133,0.754,0.133,0.93   c0,7.097-0.199,17.742-0.596,31.936c-0.398,14.194-0.597,24.84-0.597,31.937c0,8.252,0.882,14.86,2.65,19.827   c1.412,1.152,2.65,1.73,3.71,1.73c1.766,0,3.578-0.973,5.433-2.915c3.356,1.942,7.331,2.915,11.925,2.915   c12.807,0,23.009-6.633,30.607-19.901c6.36-11.146,9.54-23.665,9.54-37.551C238.157,253.094,235.859,244.471,231.267,237.747z    M149.649,304.113c-3.799,0-8.923,1.018-15.37,3.047c-6.449,2.034-11.352,3.048-14.707,3.048c-3.975,0-6.406-2.561-7.288-7.685   c-0.265-1.325-0.397-5.387-0.397-12.19c0-0.971,0.086-2.253,0.265-3.842c0.175-0.971,0.463-1.501,0.861-1.59   c0.397-0.087,0.861-0.176,1.391-0.265c3.71-0.706,7.374-1.458,10.998-2.253c4.326-0.795,8.036-1.192,11.13-1.192   c1.235,0,2.206,0.221,2.915,0.662c1.5-0.176,2.914-0.352,4.24-0.53c1.325-0.176,1.987-1.368,1.987-3.577   c0-0.617-0.443-2.34-1.325-5.168c-3.358-1.59-6.317-2.385-8.877-2.385c-2.299,0-5.611,0.576-9.938,1.722   c-4.329,1.15-7.642,1.723-9.937,1.723c-1.68,0-2.518-0.927-2.518-2.783c0-12.365,0.484-20.669,1.458-24.909   c0.265-1.147,0.705-1.81,1.325-1.988c0.616-0.176,1.279-0.308,1.987-0.397c12.366-3.18,22.127-4.771,29.282-4.771   c0.53,0,1.346,0.067,2.452,0.199c1.103,0.133,1.921,0.199,2.451,0.199c4.327,0,6.493-1.633,6.493-4.902   c0-2.207-1.325-3.93-3.976-5.168c-1.944-0.882-4.196-1.325-6.757-1.325c-4.418,0-11.087,0.841-20.007,2.518   c-6.804,1.325-13.605,2.606-20.405,3.842c-4.419,0.708-6.625,3.093-6.625,7.155c0,0.53,0.086,1.391,0.265,2.584   c0.175,1.192,0.265,2.099,0.265,2.716c0,0.089-0.046,0.795-0.133,2.12c-0.884,9.894-1.325,23.32-1.325,40.28   c0,21.554,7.109,32.331,21.333,32.331c3.796,0,9.295-1.149,16.496-3.445c7.198-2.296,12.697-3.445,16.496-3.445   c0.352,0,0.861,0.066,1.524,0.199c0.662,0.132,1.169,0.198,1.524,0.198c1.325,0,2.385-0.741,3.18-2.226   c0.616-1.135,0.927-2.442,0.927-3.925C159.541,305.641,155.655,304.113,149.649,304.113z"/>
	<path clip-path="url(#SVGID_2_)" fill="#87B926" d="M724.412,231.167c-2.209-1.592-3.932-2.389-5.168-2.389   c-3.888,0-6.979,3.672-9.275,11.018c-1.59,5.221-2.517,10.529-2.781,15.927l-1.325,35.973c0,0.886,0.108,2.125,0.331,3.717   c0.219,1.594,0.331,2.743,0.331,3.451c0,2.478-0.486,3.716-1.457,3.716c-2.65,0-6.671-8.169-12.059-24.512   c-4.505-13.867-7.287-23.937-8.347-30.211c-0.265-2.206-0.53-4.372-0.795-6.492c-0.443-3.091-0.928-5.122-1.458-6.095   c-1.944-2.915-5.167-4.372-9.672-4.372c-1.944,0-3.889,0.486-5.83,1.457c-2.385,1.149-3.578,2.607-3.578,4.373   c0,0.178,0.066,0.443,0.199,0.795c0.132,0.354,0.198,0.619,0.198,0.795v16.164c0,3.624-0.442,9.011-1.324,16.166   c-0.885,7.155-1.325,12.544-1.325,16.165c0,1.503-0.046,3.732-0.133,6.691c-0.089,2.96-0.132,5.19-0.132,6.691   c0,3.357,0.616,7.067,1.854,11.13c1.59,5.213,3.621,7.817,6.095,7.817c1.767,0,3.532-0.64,5.301-1.922   c1.766-1.279,2.649-2.759,2.649-4.438c0-0.795-0.686-2.031-2.054-3.71c-1.371-1.678-2.054-8.171-2.054-19.479   c0-5.122,0.928-15.192,2.782-30.21c2.12,6.89,4.194,13.78,6.228,20.67c3.532,10.6,7.022,18.904,10.468,24.91   c4.77,8.128,9.583,12.19,14.442,12.19c3.267,0,6.006-2.565,8.215-7.697c1.677-4.069,2.561-8.05,2.649-11.942l0.398-38.085   c0-5.131,1.279-11.72,3.842-19.772c0.176-0.443,0.75-1.638,1.723-3.584c0.796-1.503,1.192-2.741,1.192-3.714   C724.544,232.007,724.499,231.61,724.412,231.167 M541.501,232.488c-1.854-1.325-3.577-1.988-5.167-1.988   c-2.033,0-4.107,0.928-6.228,2.783s-3.181,3.799-3.181,5.83c0,3.71-0.065,9.208-0.197,16.496   c-0.134,7.287-0.199,12.743-0.199,16.364c0,15.37,0.617,27.427,1.854,36.172c0.972,7.155,3.71,10.778,8.215,10.865h1.192   c4.327,0,6.493-0.927,6.493-2.783c0-0.351-0.046-0.616-0.133-0.794c-1.944-3.532-3.226-6.314-3.843-8.348   c-0.707-2.385-1.06-5.52-1.06-9.407c0-14.927,0.927-32.285,2.782-52.073c0.352-3.267,0.706-5.254,1.06-5.962   c0.795-1.501,1.193-2.472,1.193-2.915C544.284,235.227,543.356,233.813,541.501,232.488 M507.714,231.825   c-3.18-1.06-6.89-1.59-11.13-1.59c-6.008,0-13.869,0.53-23.585,1.59c-12.544,1.414-19.477,3.093-20.802,5.035   c-0.884,0.265-1.325,1.149-1.325,2.65c0,3.623,3.064,5.433,9.194,5.433c1.864,0,4.263-0.22,7.193-0.663   c3.554-0.53,5.952-0.838,7.197-0.927v3.842c0,3.888-0.354,8.967-1.06,15.238c-0.885,8.039-1.371,13.117-1.458,15.237   c-0.354,4.859-0.53,11.66-0.53,20.405c0,7.509,0.397,12.587,1.193,15.238c1.677,5.479,5.343,8.215,10.996,8.215   c0.972,0,2.297-0.443,3.976-1.324v-3.578c-2.385-3.797-3.577-10.819-3.577-21.067c0-15.105,0.838-28.664,2.517-40.678   c0.706-4.416,1.236-7.728,1.591-9.937c0.176-1.501,0.331-2.363,0.464-2.584c0.132-0.22,0.86-0.331,2.186-0.331h9.144   c1.411,0,3.199,0.376,5.365,1.126c2.163,0.751,3.645,1.126,4.439,1.126c1.412,0,2.583-0.551,3.511-1.656   c0.927-1.104,1.392-2.406,1.392-3.909C514.604,235.625,512.306,233.328,507.714,231.825 M438.418,233.945   c0-1.59-0.95-3.002-2.849-4.24c-1.9-1.236-3.689-1.855-5.366-1.855c-1.59,0-2.981,0.752-4.174,2.253   c-1.192,1.503-1.788,3.047-1.788,4.637c0,0.619,0.265,1.458,0.795,2.518c1.766,3.623,2.65,8.347,2.65,14.177   c0,15.989-0.663,27.782-1.988,35.378c-2.915,16.253-8.79,24.379-17.622,24.379c-4.594,0-8.083-2.472-10.468-7.42   c-1.944-3.886-2.915-8.348-2.915-13.383v-16.43c0-3.621,0.441-9.01,1.325-16.165c0.882-7.155,1.325-12.498,1.325-16.032   c0-1.06,0.441-2.518,1.325-4.373c0.882-1.855,1.325-3.267,1.325-4.24c0-1.855-1.503-2.782-4.505-2.782   c-2.65,0-5.346,0.575-8.082,1.722c-3.534,1.414-5.3,3.226-5.3,5.433c0,0.708,0.265,1.745,0.795,3.113   c0.53,1.371,0.795,2.408,0.795,3.114c0,4.064-0.265,10.182-0.795,18.351c-0.53,8.172-0.795,14.29-0.795,18.352   c0,8.304,0.662,14.929,1.987,19.875c1.855,6.979,5.255,12.5,10.203,16.562c4.505,3.621,9.759,5.434,15.767,5.434   c6.712,0,12.366-2.432,16.96-7.288c3.71-3.887,6.625-10.908,8.744-21.067c1.767-8.215,2.65-15.987,2.65-23.32V233.945z    M372.301,309.206c-1.325-2.207-3.226-3.313-5.698-3.313c-2.65,0-6.449,0.907-11.394,2.717c-4.949,1.812-8.746,2.717-11.395,2.717   c-5.92,0-8.878-5.211-8.878-15.635c0-5.917,0.573-14.794,1.722-26.632c1.147-11.836,1.723-20.757,1.723-26.766   c0-2.825-0.53-5.475-1.59-7.949c-1.325-3.18-3.226-4.77-5.698-4.77c-2.563,0-4.726,1.06-6.492,3.18   c-0.178,1.325-0.265,2.517-0.265,3.577c0,1.06,0.066,2.65,0.199,4.77c0.132,2.12,0.198,3.667,0.198,4.638   c0,5.213-0.397,12.941-1.192,23.187c-0.795,10.248-1.193,17.977-1.193,23.188c0,8.923,1.28,15.635,3.843,20.14   c3.356,5.83,9.186,8.745,17.49,8.745c10.6,0,20.67-1.724,30.21-5.168C373.891,313.18,373.361,310.973,372.301,309.206"/>
	<path clip-path="url(#SVGID_2_)" fill="none" stroke="#87B926" stroke-width="2.65" stroke-miterlimit="10.6" d="M724.412,231.167   c-2.209-1.592-3.932-2.389-5.168-2.389c-3.888,0-6.979,3.672-9.275,11.018c-1.59,5.221-2.517,10.529-2.781,15.927l-1.325,35.973   c0,0.886,0.108,2.125,0.331,3.717c0.219,1.594,0.331,2.743,0.331,3.451c0,2.478-0.486,3.716-1.457,3.716   c-2.65,0-6.671-8.169-12.059-24.512c-4.505-13.867-7.287-23.937-8.347-30.211c-0.265-2.206-0.53-4.372-0.795-6.492   c-0.443-3.091-0.928-5.122-1.458-6.095c-1.944-2.915-5.167-4.372-9.672-4.372c-1.944,0-3.889,0.486-5.83,1.457   c-2.385,1.149-3.578,2.607-3.578,4.373c0,0.178,0.066,0.443,0.199,0.795c0.132,0.354,0.198,0.619,0.198,0.795v16.164   c0,3.624-0.442,9.011-1.324,16.166c-0.885,7.155-1.325,12.544-1.325,16.165c0,1.503-0.046,3.732-0.133,6.691   c-0.089,2.96-0.132,5.19-0.132,6.691c0,3.357,0.616,7.067,1.854,11.13c1.59,5.213,3.621,7.817,6.095,7.817   c1.767,0,3.532-0.64,5.301-1.922c1.766-1.279,2.649-2.759,2.649-4.438c0-0.795-0.686-2.031-2.054-3.71   c-1.371-1.678-2.054-8.171-2.054-19.479c0-5.122,0.928-15.192,2.782-30.21c2.12,6.89,4.194,13.78,6.228,20.67   c3.532,10.6,7.022,18.904,10.468,24.91c4.77,8.128,9.583,12.19,14.442,12.19c3.267,0,6.006-2.565,8.215-7.697   c1.677-4.069,2.561-8.05,2.649-11.942l0.398-38.085c0-5.131,1.279-11.72,3.842-19.772c0.176-0.443,0.75-1.638,1.723-3.584   c0.796-1.503,1.192-2.741,1.192-3.714C724.544,232.007,724.499,231.61,724.412,231.167z M541.501,232.488   c-1.854-1.325-3.577-1.988-5.167-1.988c-2.033,0-4.107,0.928-6.228,2.783s-3.181,3.799-3.181,5.83c0,3.71-0.065,9.208-0.197,16.496   c-0.134,7.287-0.199,12.743-0.199,16.364c0,15.37,0.617,27.427,1.854,36.172c0.972,7.155,3.71,10.778,8.215,10.865h1.192   c4.327,0,6.493-0.927,6.493-2.783c0-0.351-0.046-0.616-0.133-0.794c-1.944-3.532-3.226-6.314-3.843-8.348   c-0.707-2.385-1.06-5.52-1.06-9.407c0-14.927,0.927-32.285,2.782-52.073c0.352-3.267,0.706-5.254,1.06-5.962   c0.795-1.501,1.193-2.472,1.193-2.915C544.284,235.227,543.356,233.813,541.501,232.488z M507.714,231.825   c-3.18-1.06-6.89-1.59-11.13-1.59c-6.008,0-13.869,0.53-23.585,1.59c-12.544,1.414-19.477,3.093-20.802,5.035   c-0.884,0.265-1.325,1.149-1.325,2.65c0,3.623,3.064,5.433,9.194,5.433c1.864,0,4.263-0.22,7.193-0.663   c3.554-0.53,5.952-0.838,7.197-0.927v3.842c0,3.888-0.354,8.967-1.06,15.238c-0.885,8.039-1.371,13.117-1.458,15.237   c-0.354,4.859-0.53,11.66-0.53,20.405c0,7.509,0.397,12.587,1.193,15.238c1.677,5.479,5.343,8.215,10.996,8.215   c0.972,0,2.297-0.443,3.976-1.324v-3.578c-2.385-3.797-3.577-10.819-3.577-21.067c0-15.105,0.838-28.664,2.517-40.678   c0.706-4.416,1.236-7.728,1.591-9.937c0.176-1.501,0.331-2.363,0.464-2.584c0.132-0.22,0.86-0.331,2.186-0.331h9.144   c1.411,0,3.199,0.376,5.365,1.126c2.163,0.751,3.645,1.126,4.439,1.126c1.412,0,2.583-0.551,3.511-1.656   c0.927-1.104,1.392-2.406,1.392-3.909C514.604,235.625,512.306,233.328,507.714,231.825z M438.418,233.945   c0-1.59-0.95-3.002-2.849-4.24c-1.9-1.236-3.689-1.855-5.366-1.855c-1.59,0-2.981,0.752-4.174,2.253   c-1.192,1.503-1.788,3.047-1.788,4.637c0,0.619,0.265,1.458,0.795,2.518c1.766,3.623,2.65,8.347,2.65,14.177   c0,15.989-0.663,27.782-1.988,35.378c-2.915,16.253-8.79,24.379-17.622,24.379c-4.594,0-8.083-2.472-10.468-7.42   c-1.944-3.886-2.915-8.348-2.915-13.383v-16.43c0-3.621,0.441-9.01,1.325-16.165c0.882-7.155,1.325-12.498,1.325-16.032   c0-1.06,0.441-2.518,1.325-4.373c0.882-1.855,1.325-3.267,1.325-4.24c0-1.855-1.503-2.782-4.505-2.782   c-2.65,0-5.346,0.575-8.082,1.722c-3.534,1.414-5.3,3.226-5.3,5.433c0,0.708,0.265,1.745,0.795,3.113   c0.53,1.371,0.795,2.408,0.795,3.114c0,4.064-0.265,10.182-0.795,18.351c-0.53,8.172-0.795,14.29-0.795,18.352   c0,8.304,0.662,14.929,1.987,19.875c1.855,6.979,5.255,12.5,10.203,16.562c4.505,3.621,9.759,5.434,15.767,5.434   c6.712,0,12.366-2.432,16.96-7.288c3.71-3.887,6.625-10.908,8.744-21.067c1.767-8.215,2.65-15.987,2.65-23.32V233.945z    M372.301,309.206c-1.325-2.207-3.226-3.313-5.698-3.313c-2.65,0-6.449,0.907-11.394,2.717c-4.949,1.812-8.746,2.717-11.395,2.717   c-5.92,0-8.878-5.211-8.878-15.635c0-5.917,0.573-14.794,1.722-26.632c1.147-11.836,1.723-20.757,1.723-26.766   c0-2.825-0.53-5.475-1.59-7.949c-1.325-3.18-3.226-4.77-5.698-4.77c-2.563,0-4.726,1.06-6.492,3.18   c-0.178,1.325-0.265,2.517-0.265,3.577c0,1.06,0.066,2.65,0.199,4.77c0.132,2.12,0.198,3.667,0.198,4.638   c0,5.213-0.397,12.941-1.192,23.187c-0.795,10.248-1.193,17.977-1.193,23.188c0,8.923,1.28,15.635,3.843,20.14   c3.356,5.83,9.186,8.745,17.49,8.745c10.6,0,20.67-1.724,30.21-5.168C373.891,313.18,373.361,310.973,372.301,309.206z"/>
</g>
</svg>